<mxfile host="app.diagrams.net" modified="2023-12-17T14:00:05.469Z" agent="Mozilla/5.0 (X11; Linux x86_64) AppleWebKit/537.36 (KHTML, like Gecko) Chrome/115.0.0.0 Safari/537.36" etag="QRpLD96MOTdVu94gWoym" version="22.1.11" type="device">
  <diagram name="Page-1" id="1kxsrUT7nrdaGYhW99Dr">
    <mxGraphModel dx="2951" dy="2867" grid="1" gridSize="10" guides="1" tooltips="1" connect="1" arrows="1" fold="1" page="1" pageScale="1" pageWidth="850" pageHeight="1100" math="0" shadow="0">
      <root>
        <mxCell id="0" />
        <mxCell id="1" parent="0" />
        <mxCell id="jvdhxDSraGoJmhO3MUvB-20" value="Vertical Container" style="swimlane;whiteSpace=wrap;html=1;" vertex="1" parent="1">
          <mxGeometry x="-1500" y="140" width="660" height="1030" as="geometry" />
        </mxCell>
        <mxCell id="jvdhxDSraGoJmhO3MUvB-17" value="client" style="shape=umlActor;verticalLabelPosition=bottom;verticalAlign=top;html=1;outlineConnect=0;" vertex="1" parent="jvdhxDSraGoJmhO3MUvB-20">
          <mxGeometry x="40" y="280" width="30" height="60" as="geometry" />
        </mxCell>
        <mxCell id="jvdhxDSraGoJmhO3MUvB-18" value="responses:&lt;br&gt;accepted: joint successfully&lt;br&gt;rejected: incorrect password&lt;br&gt;rejected: lobby is full&lt;br&gt;rejected: game started and specter is not allowed&lt;br&gt;rejected: unknown reason&lt;br&gt;&lt;br&gt;if accepted: return an generated id which is valid on this lobby for requests" style="edgeStyle=orthogonalEdgeStyle;rounded=0;orthogonalLoop=1;jettySize=auto;html=1;" edge="1" parent="jvdhxDSraGoJmhO3MUvB-20" source="jvdhxDSraGoJmhO3MUvB-19" target="jvdhxDSraGoJmhO3MUvB-17">
          <mxGeometry x="0.0441" y="20" relative="1" as="geometry">
            <Array as="points">
              <mxPoint x="345" y="420" />
              <mxPoint x="345" y="410" />
            </Array>
            <mxPoint as="offset" />
          </mxGeometry>
        </mxCell>
        <mxCell id="jvdhxDSraGoJmhO3MUvB-19" value="server" style="shape=umlActor;verticalLabelPosition=bottom;verticalAlign=top;html=1;outlineConnect=0;" vertex="1" parent="jvdhxDSraGoJmhO3MUvB-20">
          <mxGeometry x="600" y="320" width="30" height="60" as="geometry" />
        </mxCell>
        <mxCell id="jvdhxDSraGoJmhO3MUvB-16" value="request: ok password is (password)" style="edgeStyle=orthogonalEdgeStyle;rounded=0;orthogonalLoop=1;jettySize=auto;html=1;" edge="1" parent="jvdhxDSraGoJmhO3MUvB-20" source="jvdhxDSraGoJmhO3MUvB-17" target="jvdhxDSraGoJmhO3MUvB-19">
          <mxGeometry x="-0.08" relative="1" as="geometry">
            <mxPoint as="offset" />
          </mxGeometry>
        </mxCell>
        <mxCell id="jvdhxDSraGoJmhO3MUvB-3" value="client" style="shape=umlActor;verticalLabelPosition=bottom;verticalAlign=top;html=1;outlineConnect=0;" vertex="1" parent="jvdhxDSraGoJmhO3MUvB-20">
          <mxGeometry x="40" y="50" width="30" height="60" as="geometry" />
        </mxCell>
        <mxCell id="jvdhxDSraGoJmhO3MUvB-15" value="responses:&lt;br&gt;rejected(ip blocked),&lt;br&gt;rejected(identity blocked)&lt;br&gt;rejected(lobby is full),&lt;br&gt;rejected(game-startd-specter-not-allowed)&lt;br&gt;rejected(invalid identity)&lt;br&gt;accepted: enter your password&lt;br&gt;rejected: unknown reason" style="edgeStyle=orthogonalEdgeStyle;rounded=0;orthogonalLoop=1;jettySize=auto;html=1;" edge="1" parent="jvdhxDSraGoJmhO3MUvB-20" source="jvdhxDSraGoJmhO3MUvB-13" target="jvdhxDSraGoJmhO3MUvB-3">
          <mxGeometry x="-0.04" y="40" relative="1" as="geometry">
            <Array as="points">
              <mxPoint x="315" y="120" />
              <mxPoint x="315" y="110" />
            </Array>
            <mxPoint as="offset" />
          </mxGeometry>
        </mxCell>
        <mxCell id="jvdhxDSraGoJmhO3MUvB-13" value="server" style="shape=umlActor;verticalLabelPosition=bottom;verticalAlign=top;html=1;outlineConnect=0;" vertex="1" parent="jvdhxDSraGoJmhO3MUvB-20">
          <mxGeometry x="560" y="60" width="30" height="60" as="geometry" />
        </mxCell>
        <mxCell id="jvdhxDSraGoJmhO3MUvB-14" value="request join to lobby(identity)" style="edgeStyle=orthogonalEdgeStyle;rounded=0;orthogonalLoop=1;jettySize=auto;html=1;" edge="1" parent="jvdhxDSraGoJmhO3MUvB-20" source="jvdhxDSraGoJmhO3MUvB-3" target="jvdhxDSraGoJmhO3MUvB-13">
          <mxGeometry relative="1" as="geometry" />
        </mxCell>
        <mxCell id="jvdhxDSraGoJmhO3MUvB-23" value="client" style="shape=umlActor;verticalLabelPosition=bottom;verticalAlign=top;html=1;outlineConnect=0;" vertex="1" parent="jvdhxDSraGoJmhO3MUvB-20">
          <mxGeometry x="30" y="560" width="30" height="60" as="geometry" />
        </mxCell>
        <mxCell id="jvdhxDSraGoJmhO3MUvB-24" value="responses:&lt;br&gt;rejected: text chat is disabled&lt;br&gt;accepted: sent successfully&lt;br&gt;&lt;br&gt;if accepted boradcast text message to all connected clients even sender" style="edgeStyle=orthogonalEdgeStyle;rounded=0;orthogonalLoop=1;jettySize=auto;html=1;" edge="1" parent="jvdhxDSraGoJmhO3MUvB-20" source="jvdhxDSraGoJmhO3MUvB-25" target="jvdhxDSraGoJmhO3MUvB-23">
          <mxGeometry x="0.0386" relative="1" as="geometry">
            <Array as="points">
              <mxPoint x="335" y="700" />
              <mxPoint x="335" y="690" />
            </Array>
            <mxPoint as="offset" />
          </mxGeometry>
        </mxCell>
        <mxCell id="jvdhxDSraGoJmhO3MUvB-25" value="server" style="shape=umlActor;verticalLabelPosition=bottom;verticalAlign=top;html=1;outlineConnect=0;" vertex="1" parent="jvdhxDSraGoJmhO3MUvB-20">
          <mxGeometry x="590" y="600" width="30" height="60" as="geometry" />
        </mxCell>
        <mxCell id="jvdhxDSraGoJmhO3MUvB-26" value="request: send text chat (text, specific joint to lobby id)" style="edgeStyle=orthogonalEdgeStyle;rounded=0;orthogonalLoop=1;jettySize=auto;html=1;" edge="1" parent="jvdhxDSraGoJmhO3MUvB-20" source="jvdhxDSraGoJmhO3MUvB-23" target="jvdhxDSraGoJmhO3MUvB-25">
          <mxGeometry x="-0.08" relative="1" as="geometry">
            <mxPoint as="offset" />
          </mxGeometry>
        </mxCell>
        <mxCell id="jvdhxDSraGoJmhO3MUvB-28" value="" style="endArrow=none;html=1;rounded=0;fillColor=#d5e8d4;strokeColor=#82b366;" edge="1" parent="jvdhxDSraGoJmhO3MUvB-20">
          <mxGeometry width="50" height="50" relative="1" as="geometry">
            <mxPoint y="520" as="sourcePoint" />
            <mxPoint x="660" y="530" as="targetPoint" />
          </mxGeometry>
        </mxCell>
        <mxCell id="jvdhxDSraGoJmhO3MUvB-29" value="" style="endArrow=none;html=1;rounded=0;fillColor=#d5e8d4;strokeColor=#82b366;" edge="1" parent="jvdhxDSraGoJmhO3MUvB-20">
          <mxGeometry width="50" height="50" relative="1" as="geometry">
            <mxPoint y="770" as="sourcePoint" />
            <mxPoint x="660" y="760" as="targetPoint" />
          </mxGeometry>
        </mxCell>
        <mxCell id="jvdhxDSraGoJmhO3MUvB-30" value="client" style="shape=umlActor;verticalLabelPosition=bottom;verticalAlign=top;html=1;outlineConnect=0;" vertex="1" parent="jvdhxDSraGoJmhO3MUvB-20">
          <mxGeometry x="30" y="790" width="30" height="60" as="geometry" />
        </mxCell>
        <mxCell id="jvdhxDSraGoJmhO3MUvB-31" value="responses:&lt;br&gt;rejected: voice chat is disabled&lt;br&gt;accepted: sent successfully&lt;br&gt;&lt;br&gt;if accepted boradcast voiceData to all connected clients except &lt;br&gt;sender and&amp;nbsp; those clients if client.speakerStatus == closed" style="edgeStyle=orthogonalEdgeStyle;rounded=0;orthogonalLoop=1;jettySize=auto;html=1;" edge="1" parent="jvdhxDSraGoJmhO3MUvB-20" source="jvdhxDSraGoJmhO3MUvB-32" target="jvdhxDSraGoJmhO3MUvB-30">
          <mxGeometry x="0.0441" y="30" relative="1" as="geometry">
            <Array as="points">
              <mxPoint x="335" y="930" />
              <mxPoint x="335" y="920" />
            </Array>
            <mxPoint as="offset" />
          </mxGeometry>
        </mxCell>
        <mxCell id="jvdhxDSraGoJmhO3MUvB-32" value="server" style="shape=umlActor;verticalLabelPosition=bottom;verticalAlign=top;html=1;outlineConnect=0;" vertex="1" parent="jvdhxDSraGoJmhO3MUvB-20">
          <mxGeometry x="590" y="830" width="30" height="60" as="geometry" />
        </mxCell>
        <mxCell id="jvdhxDSraGoJmhO3MUvB-33" value="request: send voice chat (voiceData, specific joint to lobby id)" style="edgeStyle=orthogonalEdgeStyle;rounded=0;orthogonalLoop=1;jettySize=auto;html=1;" edge="1" parent="jvdhxDSraGoJmhO3MUvB-20" source="jvdhxDSraGoJmhO3MUvB-30" target="jvdhxDSraGoJmhO3MUvB-32">
          <mxGeometry x="-0.08" relative="1" as="geometry">
            <mxPoint as="offset" />
          </mxGeometry>
        </mxCell>
        <mxCell id="jvdhxDSraGoJmhO3MUvB-27" value="" style="endArrow=none;html=1;rounded=0;fillColor=#d5e8d4;strokeColor=#82b366;" edge="1" parent="1">
          <mxGeometry width="50" height="50" relative="1" as="geometry">
            <mxPoint x="-1500" y="380" as="sourcePoint" />
            <mxPoint x="-840" y="390" as="targetPoint" />
          </mxGeometry>
        </mxCell>
        <mxCell id="jvdhxDSraGoJmhO3MUvB-34" value="lobby request list" style="swimlane;fontStyle=0;childLayout=stackLayout;horizontal=1;startSize=30;horizontalStack=0;resizeParent=1;resizeParentMax=0;resizeLast=0;collapsible=1;marginBottom=0;whiteSpace=wrap;html=1;" vertex="1" parent="1">
          <mxGeometry x="-770" y="190" width="510" height="480" as="geometry" />
        </mxCell>
        <mxCell id="jvdhxDSraGoJmhO3MUvB-47" value="0.join to lobby (identity)" style="text;strokeColor=none;fillColor=none;align=left;verticalAlign=middle;spacingLeft=4;spacingRight=4;overflow=hidden;points=[[0,0.5],[1,0.5]];portConstraint=eastwest;rotatable=0;whiteSpace=wrap;html=1;" vertex="1" parent="jvdhxDSraGoJmhO3MUvB-34">
          <mxGeometry y="30" width="510" height="30" as="geometry" />
        </mxCell>
        <mxCell id="jvdhxDSraGoJmhO3MUvB-35" value="1.reconnect to lobby(identity, lobbySecurityId)" style="text;strokeColor=none;fillColor=none;align=left;verticalAlign=middle;spacingLeft=4;spacingRight=4;overflow=hidden;points=[[0,0.5],[1,0.5]];portConstraint=eastwest;rotatable=0;whiteSpace=wrap;html=1;" vertex="1" parent="jvdhxDSraGoJmhO3MUvB-34">
          <mxGeometry y="60" width="510" height="30" as="geometry" />
        </mxCell>
        <mxCell id="jvdhxDSraGoJmhO3MUvB-36" value="2.entered passowrd is(passwod)" style="text;strokeColor=none;fillColor=none;align=left;verticalAlign=middle;spacingLeft=4;spacingRight=4;overflow=hidden;points=[[0,0.5],[1,0.5]];portConstraint=eastwest;rotatable=0;whiteSpace=wrap;html=1;" vertex="1" parent="jvdhxDSraGoJmhO3MUvB-34">
          <mxGeometry y="90" width="510" height="30" as="geometry" />
        </mxCell>
        <mxCell id="jvdhxDSraGoJmhO3MUvB-37" value="3.send text chat (message, lobbySecurityId)&lt;br&gt;//lobbySecurityId is an id generated by that lobby only valid on that lobby to make sure that client is same as authicationed" style="text;strokeColor=none;fillColor=none;align=left;verticalAlign=middle;spacingLeft=4;spacingRight=4;overflow=hidden;points=[[0,0.5],[1,0.5]];portConstraint=eastwest;rotatable=0;whiteSpace=wrap;html=1;" vertex="1" parent="jvdhxDSraGoJmhO3MUvB-34">
          <mxGeometry y="120" width="510" height="30" as="geometry" />
        </mxCell>
        <mxCell id="jvdhxDSraGoJmhO3MUvB-40" value="4.send voice chat(voiceData, lobbySecurityId)" style="text;strokeColor=none;fillColor=none;align=left;verticalAlign=middle;spacingLeft=4;spacingRight=4;overflow=hidden;points=[[0,0.5],[1,0.5]];portConstraint=eastwest;rotatable=0;whiteSpace=wrap;html=1;" vertex="1" parent="jvdhxDSraGoJmhO3MUvB-34">
          <mxGeometry y="150" width="510" height="30" as="geometry" />
        </mxCell>
        <mxCell id="jvdhxDSraGoJmhO3MUvB-41" value="5.giveLobbySettingsInfo(lobbySecurityId)" style="text;strokeColor=none;fillColor=none;align=left;verticalAlign=middle;spacingLeft=4;spacingRight=4;overflow=hidden;points=[[0,0.5],[1,0.5]];portConstraint=eastwest;rotatable=0;whiteSpace=wrap;html=1;" vertex="1" parent="jvdhxDSraGoJmhO3MUvB-34">
          <mxGeometry y="180" width="510" height="30" as="geometry" />
        </mxCell>
        <mxCell id="jvdhxDSraGoJmhO3MUvB-42" value="6.updateLobbySettingsInfo(LobbySettingsUpdatedInfo, lobbySecurityId, identity)" style="text;strokeColor=#b85450;fillColor=#f8cecc;align=left;verticalAlign=middle;spacingLeft=4;spacingRight=4;overflow=hidden;points=[[0,0.5],[1,0.5]];portConstraint=eastwest;rotatable=0;whiteSpace=wrap;html=1;" vertex="1" parent="jvdhxDSraGoJmhO3MUvB-34">
          <mxGeometry y="210" width="510" height="30" as="geometry" />
        </mxCell>
        <mxCell id="jvdhxDSraGoJmhO3MUvB-43" value="7.getLobbyInfo(lobbySecurityId)" style="text;strokeColor=none;fillColor=none;align=left;verticalAlign=middle;spacingLeft=4;spacingRight=4;overflow=hidden;points=[[0,0.5],[1,0.5]];portConstraint=eastwest;rotatable=0;whiteSpace=wrap;html=1;" vertex="1" parent="jvdhxDSraGoJmhO3MUvB-34">
          <mxGeometry y="240" width="510" height="30" as="geometry" />
        </mxCell>
        <mxCell id="jvdhxDSraGoJmhO3MUvB-44" value="8.leave lobby(lobbySecurityId, identity)" style="text;strokeColor=#b85450;fillColor=#f8cecc;align=left;verticalAlign=middle;spacingLeft=4;spacingRight=4;overflow=hidden;points=[[0,0.5],[1,0.5]];portConstraint=eastwest;rotatable=0;whiteSpace=wrap;html=1;" vertex="1" parent="jvdhxDSraGoJmhO3MUvB-34">
          <mxGeometry y="270" width="510" height="30" as="geometry" />
        </mxCell>
        <mxCell id="jvdhxDSraGoJmhO3MUvB-45" value="9.start game(lobbySecurityId, identity)" style="text;strokeColor=#b85450;fillColor=#f8cecc;align=left;verticalAlign=middle;spacingLeft=4;spacingRight=4;overflow=hidden;points=[[0,0.5],[1,0.5]];portConstraint=eastwest;rotatable=0;whiteSpace=wrap;html=1;" vertex="1" parent="jvdhxDSraGoJmhO3MUvB-34">
          <mxGeometry y="300" width="510" height="30" as="geometry" />
        </mxCell>
        <mxCell id="jvdhxDSraGoJmhO3MUvB-46" value="10.end game(lobbySecurityId, identity)" style="text;strokeColor=#b85450;fillColor=#f8cecc;align=left;verticalAlign=middle;spacingLeft=4;spacingRight=4;overflow=hidden;points=[[0,0.5],[1,0.5]];portConstraint=eastwest;rotatable=0;whiteSpace=wrap;html=1;" vertex="1" parent="jvdhxDSraGoJmhO3MUvB-34">
          <mxGeometry y="330" width="510" height="30" as="geometry" />
        </mxCell>
        <mxCell id="jvdhxDSraGoJmhO3MUvB-48" value="11.delete lobby(lobbySecuirtyId, identity)" style="text;strokeColor=#b85450;fillColor=#f8cecc;align=left;verticalAlign=middle;spacingLeft=4;spacingRight=4;overflow=hidden;points=[[0,0.5],[1,0.5]];portConstraint=eastwest;rotatable=0;whiteSpace=wrap;html=1;" vertex="1" parent="jvdhxDSraGoJmhO3MUvB-34">
          <mxGeometry y="360" width="510" height="30" as="geometry" />
        </mxCell>
        <mxCell id="jvdhxDSraGoJmhO3MUvB-49" value="12.kick player(target, reason, lobbySecurityId, identity)" style="text;strokeColor=#b85450;fillColor=#f8cecc;align=left;verticalAlign=middle;spacingLeft=4;spacingRight=4;overflow=hidden;points=[[0,0.5],[1,0.5]];portConstraint=eastwest;rotatable=0;whiteSpace=wrap;html=1;" vertex="1" parent="jvdhxDSraGoJmhO3MUvB-34">
          <mxGeometry y="390" width="510" height="30" as="geometry" />
        </mxCell>
        <mxCell id="jvdhxDSraGoJmhO3MUvB-50" value="13.ban player(target, reason, banTime, lobbySecurityId, identity)" style="text;strokeColor=#b85450;fillColor=#f8cecc;align=left;verticalAlign=middle;spacingLeft=4;spacingRight=4;overflow=hidden;points=[[0,0.5],[1,0.5]];portConstraint=eastwest;rotatable=0;whiteSpace=wrap;html=1;" vertex="1" parent="jvdhxDSraGoJmhO3MUvB-34">
          <mxGeometry y="420" width="510" height="30" as="geometry" />
        </mxCell>
        <mxCell id="jvdhxDSraGoJmhO3MUvB-51" value="14.tansfer/change ownership (target, lobbySecuirty, identity)" style="text;strokeColor=#b85450;fillColor=#f8cecc;align=left;verticalAlign=middle;spacingLeft=4;spacingRight=4;overflow=hidden;points=[[0,0.5],[1,0.5]];portConstraint=eastwest;rotatable=0;whiteSpace=wrap;html=1;" vertex="1" parent="jvdhxDSraGoJmhO3MUvB-34">
          <mxGeometry y="450" width="510" height="30" as="geometry" />
        </mxCell>
        <mxCell id="jvdhxDSraGoJmhO3MUvB-67" style="edgeStyle=orthogonalEdgeStyle;rounded=0;orthogonalLoop=1;jettySize=auto;html=1;" edge="1" parent="1" source="jvdhxDSraGoJmhO3MUvB-58" target="jvdhxDSraGoJmhO3MUvB-65">
          <mxGeometry relative="1" as="geometry" />
        </mxCell>
        <mxCell id="jvdhxDSraGoJmhO3MUvB-58" value="Game Server" style="image;html=1;image=img/lib/clip_art/computers/Server_Rack_128x128.png" vertex="1" parent="1">
          <mxGeometry x="760" y="-640" width="80" height="80" as="geometry" />
        </mxCell>
        <mxCell id="jvdhxDSraGoJmhO3MUvB-70" style="edgeStyle=orthogonalEdgeStyle;rounded=0;orthogonalLoop=1;jettySize=auto;html=1;" edge="1" parent="1" source="jvdhxDSraGoJmhO3MUvB-78" target="jvdhxDSraGoJmhO3MUvB-66">
          <mxGeometry relative="1" as="geometry">
            <mxPoint x="122.40000000000009" y="-1030" as="sourcePoint" />
          </mxGeometry>
        </mxCell>
        <mxCell id="jvdhxDSraGoJmhO3MUvB-71" style="edgeStyle=orthogonalEdgeStyle;rounded=0;orthogonalLoop=1;jettySize=auto;html=1;" edge="1" parent="1" source="jvdhxDSraGoJmhO3MUvB-61" target="jvdhxDSraGoJmhO3MUvB-58">
          <mxGeometry relative="1" as="geometry" />
        </mxCell>
        <mxCell id="jvdhxDSraGoJmhO3MUvB-61" value="" style="image;points=[];aspect=fixed;html=1;align=center;shadow=0;dashed=0;image=img/lib/allied_telesis/computer_and_terminals/Personal_Computer_with_Server.svg;" vertex="1" parent="1">
          <mxGeometry x="140" y="-610" width="62.400000000000006" height="62.400000000000006" as="geometry" />
        </mxCell>
        <mxCell id="jvdhxDSraGoJmhO3MUvB-72" style="edgeStyle=orthogonalEdgeStyle;rounded=0;orthogonalLoop=1;jettySize=auto;html=1;" edge="1" parent="1" source="jvdhxDSraGoJmhO3MUvB-62" target="jvdhxDSraGoJmhO3MUvB-58">
          <mxGeometry relative="1" as="geometry">
            <Array as="points">
              <mxPoint x="520" y="-529" />
              <mxPoint x="520" y="-580" />
            </Array>
          </mxGeometry>
        </mxCell>
        <mxCell id="jvdhxDSraGoJmhO3MUvB-62" value="" style="image;points=[];aspect=fixed;html=1;align=center;shadow=0;dashed=0;image=img/lib/allied_telesis/computer_and_terminals/Personal_Computer_with_Server.svg;" vertex="1" parent="1">
          <mxGeometry x="90" y="-560" width="62.400000000000006" height="62.400000000000006" as="geometry" />
        </mxCell>
        <mxCell id="jvdhxDSraGoJmhO3MUvB-134" style="edgeStyle=orthogonalEdgeStyle;rounded=0;orthogonalLoop=1;jettySize=auto;html=1;" edge="1" parent="1" source="jvdhxDSraGoJmhO3MUvB-65" target="jvdhxDSraGoJmhO3MUvB-66">
          <mxGeometry relative="1" as="geometry" />
        </mxCell>
        <mxCell id="jvdhxDSraGoJmhO3MUvB-135" style="edgeStyle=orthogonalEdgeStyle;rounded=0;orthogonalLoop=1;jettySize=auto;html=1;" edge="1" parent="1" source="jvdhxDSraGoJmhO3MUvB-65" target="jvdhxDSraGoJmhO3MUvB-58">
          <mxGeometry relative="1" as="geometry" />
        </mxCell>
        <mxCell id="jvdhxDSraGoJmhO3MUvB-136" style="edgeStyle=orthogonalEdgeStyle;rounded=0;orthogonalLoop=1;jettySize=auto;html=1;" edge="1" parent="1" source="jvdhxDSraGoJmhO3MUvB-65" target="jvdhxDSraGoJmhO3MUvB-95">
          <mxGeometry relative="1" as="geometry" />
        </mxCell>
        <mxCell id="jvdhxDSraGoJmhO3MUvB-137" style="edgeStyle=orthogonalEdgeStyle;rounded=0;orthogonalLoop=1;jettySize=auto;html=1;" edge="1" parent="1" source="jvdhxDSraGoJmhO3MUvB-65" target="jvdhxDSraGoJmhO3MUvB-110">
          <mxGeometry relative="1" as="geometry" />
        </mxCell>
        <mxCell id="jvdhxDSraGoJmhO3MUvB-65" value="db" style="image;html=1;image=img/lib/clip_art/computers/Database_128x128.png" vertex="1" parent="1">
          <mxGeometry x="830" y="-1110" width="80" height="80" as="geometry" />
        </mxCell>
        <mxCell id="jvdhxDSraGoJmhO3MUvB-69" style="edgeStyle=orthogonalEdgeStyle;rounded=0;orthogonalLoop=1;jettySize=auto;html=1;" edge="1" parent="1" source="jvdhxDSraGoJmhO3MUvB-66" target="jvdhxDSraGoJmhO3MUvB-65">
          <mxGeometry relative="1" as="geometry" />
        </mxCell>
        <mxCell id="jvdhxDSraGoJmhO3MUvB-76" style="edgeStyle=orthogonalEdgeStyle;rounded=0;orthogonalLoop=1;jettySize=auto;html=1;entryX=0;entryY=0.5;entryDx=0;entryDy=0;" edge="1" parent="1" target="jvdhxDSraGoJmhO3MUvB-66">
          <mxGeometry relative="1" as="geometry">
            <mxPoint x="680" y="-1040" as="sourcePoint" />
            <Array as="points">
              <mxPoint x="720" y="-1020" />
            </Array>
          </mxGeometry>
        </mxCell>
        <mxCell id="jvdhxDSraGoJmhO3MUvB-75" value="" style="image;html=1;image=img/lib/clip_art/computers/Network_128x128.png" vertex="1" parent="1">
          <mxGeometry x="-10" y="-1130" width="80" height="80" as="geometry" />
        </mxCell>
        <mxCell id="jvdhxDSraGoJmhO3MUvB-79" style="edgeStyle=orthogonalEdgeStyle;rounded=0;orthogonalLoop=1;jettySize=auto;html=1;" edge="1" parent="1" source="jvdhxDSraGoJmhO3MUvB-77" target="jvdhxDSraGoJmhO3MUvB-66">
          <mxGeometry relative="1" as="geometry" />
        </mxCell>
        <mxCell id="jvdhxDSraGoJmhO3MUvB-131" style="edgeStyle=orthogonalEdgeStyle;rounded=0;orthogonalLoop=1;jettySize=auto;html=1;" edge="1" parent="1" source="jvdhxDSraGoJmhO3MUvB-77" target="jvdhxDSraGoJmhO3MUvB-66">
          <mxGeometry relative="1" as="geometry" />
        </mxCell>
        <mxCell id="jvdhxDSraGoJmhO3MUvB-77" value="" style="image;html=1;image=img/lib/clip_art/computers/Network_128x128.png" vertex="1" parent="1">
          <mxGeometry x="200" y="-1270" width="80" height="80" as="geometry" />
        </mxCell>
        <mxCell id="jvdhxDSraGoJmhO3MUvB-78" value="" style="image;html=1;image=img/lib/clip_art/computers/Network_128x128.png" vertex="1" parent="1">
          <mxGeometry x="-119.99999999999999" y="-960" width="80" height="80" as="geometry" />
        </mxCell>
        <mxCell id="jvdhxDSraGoJmhO3MUvB-123" style="edgeStyle=orthogonalEdgeStyle;rounded=0;orthogonalLoop=1;jettySize=auto;html=1;" edge="1" parent="1" source="jvdhxDSraGoJmhO3MUvB-95" target="jvdhxDSraGoJmhO3MUvB-65">
          <mxGeometry relative="1" as="geometry" />
        </mxCell>
        <mxCell id="jvdhxDSraGoJmhO3MUvB-95" value="Game Server" style="image;html=1;image=img/lib/clip_art/computers/Server_Rack_128x128.png" vertex="1" parent="1">
          <mxGeometry x="800" y="-460" width="80" height="80" as="geometry" />
        </mxCell>
        <mxCell id="jvdhxDSraGoJmhO3MUvB-96" style="edgeStyle=orthogonalEdgeStyle;rounded=0;orthogonalLoop=1;jettySize=auto;html=1;" edge="1" source="jvdhxDSraGoJmhO3MUvB-97" target="jvdhxDSraGoJmhO3MUvB-95" parent="1">
          <mxGeometry relative="1" as="geometry" />
        </mxCell>
        <mxCell id="jvdhxDSraGoJmhO3MUvB-97" value="" style="image;points=[];aspect=fixed;html=1;align=center;shadow=0;dashed=0;image=img/lib/allied_telesis/computer_and_terminals/Personal_Computer_with_Server.svg;" vertex="1" parent="1">
          <mxGeometry x="140" y="-430" width="62.400000000000006" height="62.400000000000006" as="geometry" />
        </mxCell>
        <mxCell id="jvdhxDSraGoJmhO3MUvB-98" style="edgeStyle=orthogonalEdgeStyle;rounded=0;orthogonalLoop=1;jettySize=auto;html=1;" edge="1" source="jvdhxDSraGoJmhO3MUvB-143" target="jvdhxDSraGoJmhO3MUvB-95" parent="1">
          <mxGeometry relative="1" as="geometry">
            <Array as="points">
              <mxPoint x="121" y="-390" />
              <mxPoint x="520" y="-390" />
              <mxPoint x="520" y="-400" />
            </Array>
          </mxGeometry>
        </mxCell>
        <mxCell id="jvdhxDSraGoJmhO3MUvB-99" value="" style="image;points=[];aspect=fixed;html=1;align=center;shadow=0;dashed=0;image=img/lib/allied_telesis/computer_and_terminals/Personal_Computer_with_Server.svg;" vertex="1" parent="1">
          <mxGeometry x="90" y="-380" width="62.400000000000006" height="62.400000000000006" as="geometry" />
        </mxCell>
        <mxCell id="jvdhxDSraGoJmhO3MUvB-124" style="edgeStyle=orthogonalEdgeStyle;rounded=0;orthogonalLoop=1;jettySize=auto;html=1;" edge="1" parent="1" source="jvdhxDSraGoJmhO3MUvB-110" target="jvdhxDSraGoJmhO3MUvB-65">
          <mxGeometry relative="1" as="geometry" />
        </mxCell>
        <mxCell id="jvdhxDSraGoJmhO3MUvB-110" value="Game Server" style="image;html=1;image=img/lib/clip_art/computers/Server_Rack_128x128.png" vertex="1" parent="1">
          <mxGeometry x="870" y="-278.8" width="80" height="80" as="geometry" />
        </mxCell>
        <mxCell id="jvdhxDSraGoJmhO3MUvB-111" style="edgeStyle=orthogonalEdgeStyle;rounded=0;orthogonalLoop=1;jettySize=auto;html=1;" edge="1" source="jvdhxDSraGoJmhO3MUvB-112" target="jvdhxDSraGoJmhO3MUvB-110" parent="1">
          <mxGeometry relative="1" as="geometry" />
        </mxCell>
        <mxCell id="jvdhxDSraGoJmhO3MUvB-112" value="" style="image;points=[];aspect=fixed;html=1;align=center;shadow=0;dashed=0;image=img/lib/allied_telesis/computer_and_terminals/Personal_Computer_with_Server.svg;" vertex="1" parent="1">
          <mxGeometry x="142.4" y="-261.2" width="62.400000000000006" height="62.400000000000006" as="geometry" />
        </mxCell>
        <mxCell id="jvdhxDSraGoJmhO3MUvB-113" style="edgeStyle=orthogonalEdgeStyle;rounded=0;orthogonalLoop=1;jettySize=auto;html=1;" edge="1" source="jvdhxDSraGoJmhO3MUvB-114" target="jvdhxDSraGoJmhO3MUvB-110" parent="1">
          <mxGeometry relative="1" as="geometry">
            <Array as="points">
              <mxPoint x="510" y="-159" />
              <mxPoint x="510" y="-210" />
            </Array>
          </mxGeometry>
        </mxCell>
        <mxCell id="jvdhxDSraGoJmhO3MUvB-114" value="" style="image;points=[];aspect=fixed;html=1;align=center;shadow=0;dashed=0;image=img/lib/allied_telesis/computer_and_terminals/Personal_Computer_with_Server.svg;" vertex="1" parent="1">
          <mxGeometry x="102.4" y="-150" width="62.400000000000006" height="62.400000000000006" as="geometry" />
        </mxCell>
        <mxCell id="jvdhxDSraGoJmhO3MUvB-116" style="edgeStyle=orthogonalEdgeStyle;rounded=0;orthogonalLoop=1;jettySize=auto;html=1;" edge="1" parent="1" source="jvdhxDSraGoJmhO3MUvB-115" target="jvdhxDSraGoJmhO3MUvB-95">
          <mxGeometry relative="1" as="geometry" />
        </mxCell>
        <mxCell id="jvdhxDSraGoJmhO3MUvB-115" value="" style="image;points=[];aspect=fixed;html=1;align=center;shadow=0;dashed=0;image=img/lib/allied_telesis/computer_and_terminals/Personal_Computer_with_Server.svg;" vertex="1" parent="1">
          <mxGeometry x="60" y="-470" width="62.400000000000006" height="62.400000000000006" as="geometry" />
        </mxCell>
        <mxCell id="jvdhxDSraGoJmhO3MUvB-121" style="edgeStyle=orthogonalEdgeStyle;rounded=0;orthogonalLoop=1;jettySize=auto;html=1;" edge="1" parent="1" source="jvdhxDSraGoJmhO3MUvB-117" target="jvdhxDSraGoJmhO3MUvB-110">
          <mxGeometry relative="1" as="geometry" />
        </mxCell>
        <mxCell id="jvdhxDSraGoJmhO3MUvB-117" value="" style="image;points=[];aspect=fixed;html=1;align=center;shadow=0;dashed=0;image=img/lib/allied_telesis/computer_and_terminals/Personal_Computer_with_Server.svg;" vertex="1" parent="1">
          <mxGeometry x="-10" y="-230" width="62.400000000000006" height="62.400000000000006" as="geometry" />
        </mxCell>
        <mxCell id="jvdhxDSraGoJmhO3MUvB-122" style="edgeStyle=orthogonalEdgeStyle;rounded=0;orthogonalLoop=1;jettySize=auto;html=1;" edge="1" parent="1" source="jvdhxDSraGoJmhO3MUvB-118" target="jvdhxDSraGoJmhO3MUvB-110">
          <mxGeometry relative="1" as="geometry" />
        </mxCell>
        <mxCell id="jvdhxDSraGoJmhO3MUvB-118" value="" style="image;points=[];aspect=fixed;html=1;align=center;shadow=0;dashed=0;image=img/lib/allied_telesis/computer_and_terminals/Personal_Computer_with_Server.svg;" vertex="1" parent="1">
          <mxGeometry x="40" y="-292.4" width="62.400000000000006" height="62.400000000000006" as="geometry" />
        </mxCell>
        <mxCell id="jvdhxDSraGoJmhO3MUvB-120" style="edgeStyle=orthogonalEdgeStyle;rounded=0;orthogonalLoop=1;jettySize=auto;html=1;" edge="1" parent="1" source="jvdhxDSraGoJmhO3MUvB-119" target="jvdhxDSraGoJmhO3MUvB-110">
          <mxGeometry relative="1" as="geometry">
            <Array as="points">
              <mxPoint x="39" y="-170" />
              <mxPoint x="830" y="-170" />
            </Array>
          </mxGeometry>
        </mxCell>
        <mxCell id="jvdhxDSraGoJmhO3MUvB-119" value="" style="image;points=[];aspect=fixed;html=1;align=center;shadow=0;dashed=0;image=img/lib/allied_telesis/computer_and_terminals/Personal_Computer_with_Server.svg;" vertex="1" parent="1">
          <mxGeometry x="7.599999999999994" y="-140" width="62.400000000000006" height="62.400000000000006" as="geometry" />
        </mxCell>
        <mxCell id="jvdhxDSraGoJmhO3MUvB-130" style="edgeStyle=orthogonalEdgeStyle;rounded=0;orthogonalLoop=1;jettySize=auto;html=1;" edge="1" parent="1" source="jvdhxDSraGoJmhO3MUvB-125" target="jvdhxDSraGoJmhO3MUvB-66">
          <mxGeometry relative="1" as="geometry" />
        </mxCell>
        <mxCell id="jvdhxDSraGoJmhO3MUvB-125" value="" style="image;html=1;image=img/lib/clip_art/computers/Network_128x128.png" vertex="1" parent="1">
          <mxGeometry x="142.39999999999998" y="-1140" width="80" height="80" as="geometry" />
        </mxCell>
        <mxCell id="jvdhxDSraGoJmhO3MUvB-129" style="edgeStyle=orthogonalEdgeStyle;rounded=0;orthogonalLoop=1;jettySize=auto;html=1;" edge="1" parent="1" source="jvdhxDSraGoJmhO3MUvB-126" target="jvdhxDSraGoJmhO3MUvB-66">
          <mxGeometry relative="1" as="geometry" />
        </mxCell>
        <mxCell id="jvdhxDSraGoJmhO3MUvB-126" value="" style="image;html=1;image=img/lib/clip_art/computers/Network_128x128.png" vertex="1" parent="1">
          <mxGeometry x="-10" y="-920" width="80" height="80" as="geometry" />
        </mxCell>
        <mxCell id="jvdhxDSraGoJmhO3MUvB-133" style="edgeStyle=orthogonalEdgeStyle;rounded=0;orthogonalLoop=1;jettySize=auto;html=1;" edge="1" parent="1" source="jvdhxDSraGoJmhO3MUvB-127" target="jvdhxDSraGoJmhO3MUvB-66">
          <mxGeometry relative="1" as="geometry" />
        </mxCell>
        <mxCell id="jvdhxDSraGoJmhO3MUvB-127" value="" style="image;html=1;image=img/lib/clip_art/computers/Network_128x128.png" vertex="1" parent="1">
          <mxGeometry x="31.200000000000003" y="-1210" width="80" height="80" as="geometry" />
        </mxCell>
        <mxCell id="jvdhxDSraGoJmhO3MUvB-132" style="edgeStyle=orthogonalEdgeStyle;rounded=0;orthogonalLoop=1;jettySize=auto;html=1;" edge="1" parent="1" source="jvdhxDSraGoJmhO3MUvB-138" target="jvdhxDSraGoJmhO3MUvB-66">
          <mxGeometry relative="1" as="geometry" />
        </mxCell>
        <mxCell id="jvdhxDSraGoJmhO3MUvB-128" value="" style="image;html=1;image=img/lib/clip_art/computers/Network_128x128.png" vertex="1" parent="1">
          <mxGeometry x="-10" y="-1010" width="80" height="80" as="geometry" />
        </mxCell>
        <mxCell id="jvdhxDSraGoJmhO3MUvB-139" value="" style="edgeStyle=orthogonalEdgeStyle;rounded=0;orthogonalLoop=1;jettySize=auto;html=1;" edge="1" parent="1" source="jvdhxDSraGoJmhO3MUvB-128" target="jvdhxDSraGoJmhO3MUvB-138">
          <mxGeometry relative="1" as="geometry">
            <mxPoint x="70" y="-970" as="sourcePoint" />
            <mxPoint x="680" y="-1040" as="targetPoint" />
          </mxGeometry>
        </mxCell>
        <mxCell id="jvdhxDSraGoJmhO3MUvB-138" value="" style="image;html=1;image=img/lib/clip_art/general/Full_Folder_128x128.png" vertex="1" parent="1">
          <mxGeometry x="450" y="-1080" width="80" height="80" as="geometry" />
        </mxCell>
        <mxCell id="jvdhxDSraGoJmhO3MUvB-141" value="" style="edgeStyle=orthogonalEdgeStyle;rounded=0;orthogonalLoop=1;jettySize=auto;html=1;entryX=0;entryY=0.5;entryDx=0;entryDy=0;" edge="1" parent="1" source="jvdhxDSraGoJmhO3MUvB-66">
          <mxGeometry relative="1" as="geometry">
            <mxPoint x="30" y="-1050" as="sourcePoint" />
            <mxPoint x="680" y="-1040" as="targetPoint" />
            <Array as="points" />
          </mxGeometry>
        </mxCell>
        <mxCell id="jvdhxDSraGoJmhO3MUvB-142" value="" style="edgeStyle=orthogonalEdgeStyle;rounded=0;orthogonalLoop=1;jettySize=auto;html=1;entryX=0;entryY=0.5;entryDx=0;entryDy=0;" edge="1" parent="1" source="jvdhxDSraGoJmhO3MUvB-75" target="jvdhxDSraGoJmhO3MUvB-66">
          <mxGeometry relative="1" as="geometry">
            <mxPoint x="70" y="-1090" as="sourcePoint" />
            <mxPoint x="680" y="-1040" as="targetPoint" />
            <Array as="points" />
          </mxGeometry>
        </mxCell>
        <mxCell id="jvdhxDSraGoJmhO3MUvB-66" value="" style="image;html=1;image=img/lib/clip_art/computers/Server_128x128.png" vertex="1" parent="1">
          <mxGeometry x="650" y="-1090" width="80" height="80" as="geometry" />
        </mxCell>
        <mxCell id="jvdhxDSraGoJmhO3MUvB-144" value="" style="edgeStyle=orthogonalEdgeStyle;rounded=0;orthogonalLoop=1;jettySize=auto;html=1;" edge="1" parent="1" source="jvdhxDSraGoJmhO3MUvB-99" target="jvdhxDSraGoJmhO3MUvB-143">
          <mxGeometry relative="1" as="geometry">
            <mxPoint x="121" y="-380" as="sourcePoint" />
            <mxPoint x="800" y="-400" as="targetPoint" />
            <Array as="points" />
          </mxGeometry>
        </mxCell>
        <mxCell id="jvdhxDSraGoJmhO3MUvB-143" value="" style="html=1;shadow=0;dashed=0;align=center;verticalAlign=middle;shape=mxgraph.arrows2.arrow;dy=0.67;dx=20;notch=0;rotation=-180;" vertex="1" parent="1">
          <mxGeometry x="360" y="-427.6" width="250" height="60" as="geometry" />
        </mxCell>
        <mxCell id="jvdhxDSraGoJmhO3MUvB-145" value="" style="html=1;shadow=0;dashed=0;align=center;verticalAlign=middle;shape=mxgraph.arrows2.arrow;dy=0.67;dx=20;notch=0;" vertex="1" parent="1">
          <mxGeometry x="520" y="-430" width="100" height="60" as="geometry" />
        </mxCell>
        <mxCell id="jvdhxDSraGoJmhO3MUvB-148" value="/" style="swimlane;whiteSpace=wrap;html=1;" vertex="1" parent="1">
          <mxGeometry x="750" y="40" width="2880" height="2590" as="geometry" />
        </mxCell>
        <mxCell id="jvdhxDSraGoJmhO3MUvB-154" value="text socket (data + text chat)" style="sketch=0;pointerEvents=1;shadow=0;dashed=0;html=1;strokeColor=none;fillColor=#434445;aspect=fixed;labelPosition=center;verticalLabelPosition=bottom;verticalAlign=top;align=center;outlineConnect=0;shape=mxgraph.vvd.ethernet_port;" vertex="1" parent="jvdhxDSraGoJmhO3MUvB-148">
          <mxGeometry x="99.99999999999991" y="450" width="50" height="50" as="geometry" />
        </mxCell>
        <mxCell id="jvdhxDSraGoJmhO3MUvB-155" value="voice socket (voice chat)" style="sketch=0;pointerEvents=1;shadow=0;dashed=0;html=1;strokeColor=none;fillColor=#434445;aspect=fixed;labelPosition=center;verticalLabelPosition=bottom;verticalAlign=top;align=center;outlineConnect=0;shape=mxgraph.vvd.ethernet_port;" vertex="1" parent="jvdhxDSraGoJmhO3MUvB-148">
          <mxGeometry x="89.99999999999991" y="620" width="50" height="50" as="geometry" />
        </mxCell>
        <mxCell id="jvdhxDSraGoJmhO3MUvB-249" value="thread send" style="swimlane;whiteSpace=wrap;html=1;fillColor=#dae8fc;strokeColor=#6c8ebf;" vertex="1" parent="jvdhxDSraGoJmhO3MUvB-148">
          <mxGeometry x="525" y="1320" width="700" height="740" as="geometry" />
        </mxCell>
        <mxCell id="jvdhxDSraGoJmhO3MUvB-280" value="true" style="edgeStyle=orthogonalEdgeStyle;rounded=0;orthogonalLoop=1;jettySize=auto;html=1;" edge="1" parent="jvdhxDSraGoJmhO3MUvB-249" source="jvdhxDSraGoJmhO3MUvB-281" target="jvdhxDSraGoJmhO3MUvB-279">
          <mxGeometry relative="1" as="geometry" />
        </mxCell>
        <mxCell id="jvdhxDSraGoJmhO3MUvB-255" value="while(true)" style="rhombus;whiteSpace=wrap;html=1;" vertex="1" parent="jvdhxDSraGoJmhO3MUvB-249">
          <mxGeometry x="60" y="245" width="240" height="80" as="geometry" />
        </mxCell>
        <mxCell id="jvdhxDSraGoJmhO3MUvB-291" style="edgeStyle=orthogonalEdgeStyle;rounded=0;orthogonalLoop=1;jettySize=auto;html=1;" edge="1" parent="jvdhxDSraGoJmhO3MUvB-249" source="jvdhxDSraGoJmhO3MUvB-279">
          <mxGeometry relative="1" as="geometry">
            <mxPoint x="180" y="485" as="targetPoint" />
            <Array as="points">
              <mxPoint x="517" y="475" />
              <mxPoint x="275" y="475" />
            </Array>
          </mxGeometry>
        </mxCell>
        <mxCell id="jvdhxDSraGoJmhO3MUvB-279" value="temp = sendTextDataQueue.front()&lt;br&gt;dataSecuirty.encrypt(temp.data)&lt;br&gt;socketText.send(temp)&amp;nbsp;&lt;br&gt;sendTextDataQueue.pop()" style="rounded=1;whiteSpace=wrap;html=1;" vertex="1" parent="jvdhxDSraGoJmhO3MUvB-249">
          <mxGeometry x="350" y="350" width="334.6" height="85" as="geometry" />
        </mxCell>
        <mxCell id="jvdhxDSraGoJmhO3MUvB-282" value="" style="edgeStyle=orthogonalEdgeStyle;rounded=0;orthogonalLoop=1;jettySize=auto;html=1;" edge="1" parent="jvdhxDSraGoJmhO3MUvB-249" source="jvdhxDSraGoJmhO3MUvB-255" target="jvdhxDSraGoJmhO3MUvB-281">
          <mxGeometry relative="1" as="geometry">
            <mxPoint x="1260" y="820" as="sourcePoint" />
            <mxPoint x="1260" y="960" as="targetPoint" />
          </mxGeometry>
        </mxCell>
        <mxCell id="jvdhxDSraGoJmhO3MUvB-290" value="false" style="edgeStyle=orthogonalEdgeStyle;rounded=0;orthogonalLoop=1;jettySize=auto;html=1;" edge="1" parent="jvdhxDSraGoJmhO3MUvB-249" source="jvdhxDSraGoJmhO3MUvB-281" target="jvdhxDSraGoJmhO3MUvB-287">
          <mxGeometry relative="1" as="geometry" />
        </mxCell>
        <mxCell id="jvdhxDSraGoJmhO3MUvB-281" value="if sendTextDataQueue.size()&amp;gt;=1" style="rhombus;whiteSpace=wrap;html=1;" vertex="1" parent="jvdhxDSraGoJmhO3MUvB-249">
          <mxGeometry x="95" y="355" width="190" height="80" as="geometry" />
        </mxCell>
        <mxCell id="jvdhxDSraGoJmhO3MUvB-283" value="start" style="ellipse;whiteSpace=wrap;html=1;" vertex="1" parent="jvdhxDSraGoJmhO3MUvB-249">
          <mxGeometry x="120" y="40" width="120" height="80" as="geometry" />
        </mxCell>
        <mxCell id="jvdhxDSraGoJmhO3MUvB-286" style="edgeStyle=orthogonalEdgeStyle;rounded=0;orthogonalLoop=1;jettySize=auto;html=1;" edge="1" parent="jvdhxDSraGoJmhO3MUvB-249" source="jvdhxDSraGoJmhO3MUvB-308" target="jvdhxDSraGoJmhO3MUvB-255">
          <mxGeometry relative="1" as="geometry">
            <mxPoint x="180" y="205" as="sourcePoint" />
          </mxGeometry>
        </mxCell>
        <mxCell id="jvdhxDSraGoJmhO3MUvB-295" value="true" style="edgeStyle=orthogonalEdgeStyle;rounded=0;orthogonalLoop=1;jettySize=auto;html=1;" edge="1" parent="jvdhxDSraGoJmhO3MUvB-249" source="jvdhxDSraGoJmhO3MUvB-287" target="jvdhxDSraGoJmhO3MUvB-292">
          <mxGeometry relative="1" as="geometry" />
        </mxCell>
        <mxCell id="jvdhxDSraGoJmhO3MUvB-296" value="false" style="edgeStyle=orthogonalEdgeStyle;rounded=0;orthogonalLoop=1;jettySize=auto;html=1;" edge="1" parent="jvdhxDSraGoJmhO3MUvB-249" source="jvdhxDSraGoJmhO3MUvB-287" target="jvdhxDSraGoJmhO3MUvB-294">
          <mxGeometry relative="1" as="geometry" />
        </mxCell>
        <mxCell id="jvdhxDSraGoJmhO3MUvB-287" value="if sendVoiceDataQueue.size()&amp;gt;=1" style="rhombus;whiteSpace=wrap;html=1;" vertex="1" parent="jvdhxDSraGoJmhO3MUvB-249">
          <mxGeometry x="85" y="495" width="190" height="80" as="geometry" />
        </mxCell>
        <mxCell id="jvdhxDSraGoJmhO3MUvB-298" style="edgeStyle=orthogonalEdgeStyle;rounded=0;orthogonalLoop=1;jettySize=auto;html=1;" edge="1" parent="jvdhxDSraGoJmhO3MUvB-249" source="jvdhxDSraGoJmhO3MUvB-292" target="jvdhxDSraGoJmhO3MUvB-294">
          <mxGeometry relative="1" as="geometry">
            <Array as="points">
              <mxPoint x="507" y="620" />
              <mxPoint x="180" y="620" />
            </Array>
          </mxGeometry>
        </mxCell>
        <mxCell id="jvdhxDSraGoJmhO3MUvB-292" value="temp = sendVoiceDataQueue.front()&lt;br style=&quot;border-color: var(--border-color);&quot;&gt;dataSecuirty.encrypt(temp.data)&lt;br style=&quot;border-color: var(--border-color);&quot;&gt;socketVoice.send(temp)&amp;nbsp;&lt;br style=&quot;border-color: var(--border-color);&quot;&gt;sendVoiceDataQueue.pop()" style="rounded=1;whiteSpace=wrap;html=1;" vertex="1" parent="jvdhxDSraGoJmhO3MUvB-249">
          <mxGeometry x="340" y="520" width="334.6" height="85" as="geometry" />
        </mxCell>
        <mxCell id="jvdhxDSraGoJmhO3MUvB-297" style="edgeStyle=orthogonalEdgeStyle;rounded=0;orthogonalLoop=1;jettySize=auto;html=1;entryX=0;entryY=0.5;entryDx=0;entryDy=0;" edge="1" parent="jvdhxDSraGoJmhO3MUvB-249" source="jvdhxDSraGoJmhO3MUvB-294" target="jvdhxDSraGoJmhO3MUvB-255">
          <mxGeometry relative="1" as="geometry">
            <Array as="points">
              <mxPoint x="40" y="670" />
              <mxPoint x="40" y="285" />
            </Array>
          </mxGeometry>
        </mxCell>
        <mxCell id="jvdhxDSraGoJmhO3MUvB-294" value="end" style="ellipse;whiteSpace=wrap;html=1;" vertex="1" parent="jvdhxDSraGoJmhO3MUvB-249">
          <mxGeometry x="120" y="630" width="120" height="80" as="geometry" />
        </mxCell>
        <mxCell id="jvdhxDSraGoJmhO3MUvB-309" value="" style="edgeStyle=orthogonalEdgeStyle;rounded=0;orthogonalLoop=1;jettySize=auto;html=1;" edge="1" parent="jvdhxDSraGoJmhO3MUvB-249" source="jvdhxDSraGoJmhO3MUvB-283" target="jvdhxDSraGoJmhO3MUvB-308">
          <mxGeometry relative="1" as="geometry">
            <mxPoint x="1510" y="810" as="sourcePoint" />
            <mxPoint x="1510" y="955" as="targetPoint" />
          </mxGeometry>
        </mxCell>
        <mxCell id="jvdhxDSraGoJmhO3MUvB-308" value="SocketSendData temp" style="rounded=1;whiteSpace=wrap;html=1;" vertex="1" parent="jvdhxDSraGoJmhO3MUvB-249">
          <mxGeometry x="105" y="140" width="150" height="60" as="geometry" />
        </mxCell>
        <mxCell id="jvdhxDSraGoJmhO3MUvB-198" value="request-response-list.h&lt;br&gt;&lt;br&gt;#define REQUEST_JOIN_LOBBY 0&lt;br&gt;#define REQUEST_RECONNECT_TO_LOBBY 1&lt;br&gt;#define REQ LEAVE LOBBY 2&lt;br&gt;#define REQUEST_ENTERED_PASSWORD 3&lt;br&gt;#define REQUEST_SEND_TEXT_CHAT 4&lt;br&gt;#define REQUEST_SEND_VOICE_CHAT 5&lt;br&gt;REQUEST_GET_LOBBY_SETTINGS 6&lt;br&gt;REQ_UPDATE_LOBBY_SETTINGS 7&lt;br&gt;REQ_START_GAME 8&lt;br&gt;REQ END GAME 9&lt;br&gt;REQ DELETE LOBBY 10&lt;br&gt;REQ TRANSFORM OWNERSHIP 11&lt;br&gt;REQ KICK PLAYER 12&lt;br&gt;REQ BAN PLAYER 13" style="points=[[0,0],[0.25,0],[0.5,0],[0.75,0],[1,0],[1,0.25],[1,0.5],[1,0.75],[1,1],[0.75,1],[0.5,1],[0.25,1],[0,1],[0,0.75],[0,0.5],[0,0.25]];outlineConnect=0;gradientColor=none;html=1;whiteSpace=wrap;fontSize=12;fontStyle=0;container=1;pointerEvents=0;collapsible=0;recursiveResize=0;shape=mxgraph.aws4.group;grIcon=mxgraph.aws4.group_aws_step_functions_workflow;strokeColor=#CD2264;fillColor=none;verticalAlign=top;align=left;spacingLeft=30;fontColor=#CD2264;dashed=0;" vertex="1" parent="jvdhxDSraGoJmhO3MUvB-148">
          <mxGeometry x="1530" y="110" width="395" height="250" as="geometry" />
        </mxCell>
        <mxCell id="jvdhxDSraGoJmhO3MUvB-405" style="edgeStyle=orthogonalEdgeStyle;rounded=0;orthogonalLoop=1;jettySize=auto;html=1;fillColor=#d80073;strokeColor=#A50040;" edge="1" parent="jvdhxDSraGoJmhO3MUvB-148" source="jvdhxDSraGoJmhO3MUvB-178" target="jvdhxDSraGoJmhO3MUvB-376">
          <mxGeometry relative="1" as="geometry">
            <Array as="points">
              <mxPoint x="1380" y="635" />
              <mxPoint x="1380" y="1250" />
            </Array>
          </mxGeometry>
        </mxCell>
        <mxCell id="jvdhxDSraGoJmhO3MUvB-406" style="edgeStyle=orthogonalEdgeStyle;rounded=0;orthogonalLoop=1;jettySize=auto;html=1;fillColor=#d80073;strokeColor=#A50040;" edge="1" parent="jvdhxDSraGoJmhO3MUvB-148" source="jvdhxDSraGoJmhO3MUvB-178" target="jvdhxDSraGoJmhO3MUvB-351">
          <mxGeometry relative="1" as="geometry">
            <Array as="points">
              <mxPoint x="1350" y="635" />
              <mxPoint x="1350" y="790" />
            </Array>
          </mxGeometry>
        </mxCell>
        <mxCell id="jvdhxDSraGoJmhO3MUvB-178" value="void seprateCode(int&amp;amp; code, string&amp;amp; str)&lt;br&gt;&lt;br&gt;DUTY: cut three first three letter from data and return those as INT&lt;br&gt;//from config.h&lt;br&gt;#define START =0&lt;br&gt;#define END = 3&amp;nbsp;&lt;br&gt;&lt;br&gt;code = &lt;b&gt;convertStringToInt&lt;/b&gt;(str.substr(START, END));&lt;br&gt;str = str.substr(END, str.length());" style="points=[[0,0],[0.25,0],[0.5,0],[0.75,0],[1,0],[1,0.25],[1,0.5],[1,0.75],[1,1],[0.75,1],[0.5,1],[0.25,1],[0,1],[0,0.75],[0,0.5],[0,0.25]];outlineConnect=0;gradientColor=none;html=1;whiteSpace=wrap;fontSize=12;fontStyle=0;container=1;pointerEvents=0;collapsible=0;recursiveResize=0;shape=mxgraph.aws4.group;grIcon=mxgraph.aws4.group_aws_step_functions_workflow;strokeColor=#CD2264;fillColor=none;verticalAlign=top;align=left;spacingLeft=30;fontColor=#CD2264;dashed=0;" vertex="1" parent="jvdhxDSraGoJmhO3MUvB-148">
          <mxGeometry x="1422.5" y="560" width="395" height="150" as="geometry" />
        </mxCell>
        <mxCell id="jvdhxDSraGoJmhO3MUvB-234" value="int convetStringToInt(const string&amp;amp; str)&lt;br&gt;&lt;br&gt;const char* c = str.c_str()&lt;br&gt;return atoi(c)" style="points=[[0,0],[0.25,0],[0.5,0],[0.75,0],[1,0],[1,0.25],[1,0.5],[1,0.75],[1,1],[0.75,1],[0.5,1],[0.25,1],[0,1],[0,0.75],[0,0.5],[0,0.25]];outlineConnect=0;gradientColor=none;html=1;whiteSpace=wrap;fontSize=12;fontStyle=0;container=1;pointerEvents=0;collapsible=0;recursiveResize=0;shape=mxgraph.aws4.group;grIcon=mxgraph.aws4.group_aws_step_functions_workflow;strokeColor=#CD2264;fillColor=none;verticalAlign=top;align=left;spacingLeft=30;fontColor=#CD2264;dashed=0;" vertex="1" parent="jvdhxDSraGoJmhO3MUvB-148">
          <mxGeometry x="1360" y="410" width="260" height="70" as="geometry" />
        </mxCell>
        <mxCell id="jvdhxDSraGoJmhO3MUvB-235" style="edgeStyle=orthogonalEdgeStyle;rounded=0;orthogonalLoop=1;jettySize=auto;html=1;fillColor=#f8cecc;strokeColor=#b85450;" edge="1" parent="jvdhxDSraGoJmhO3MUvB-148" source="jvdhxDSraGoJmhO3MUvB-234" target="jvdhxDSraGoJmhO3MUvB-178">
          <mxGeometry relative="1" as="geometry" />
        </mxCell>
        <mxCell id="jvdhxDSraGoJmhO3MUvB-271" value="void processTextIncome(SocketData req)&lt;br&gt;&lt;br&gt;" style="points=[[0,0],[0.25,0],[0.5,0],[0.75,0],[1,0],[1,0.25],[1,0.5],[1,0.75],[1,1],[0.75,1],[0.5,1],[0.25,1],[0,1],[0,0.75],[0,0.5],[0,0.25]];outlineConnect=0;gradientColor=none;html=1;whiteSpace=wrap;fontSize=12;fontStyle=0;container=1;pointerEvents=0;collapsible=0;recursiveResize=0;shape=mxgraph.aws4.group;grIcon=mxgraph.aws4.group_aws_step_functions_workflow;strokeColor=#CD2264;fillColor=none;verticalAlign=top;align=left;spacingLeft=30;fontColor=#CD2264;dashed=0;" vertex="1" parent="jvdhxDSraGoJmhO3MUvB-148">
          <mxGeometry x="2490" y="440" width="335" height="960" as="geometry" />
        </mxCell>
        <mxCell id="jvdhxDSraGoJmhO3MUvB-224" value="case&amp;nbsp;&lt;br&gt;REQ_JOIN-LOBBY:" style="rhombus;whiteSpace=wrap;html=1;" vertex="1" parent="jvdhxDSraGoJmhO3MUvB-271">
          <mxGeometry x="91.09999999999974" y="140" width="180" height="80" as="geometry" />
        </mxCell>
        <mxCell id="jvdhxDSraGoJmhO3MUvB-225" style="edgeStyle=orthogonalEdgeStyle;rounded=0;orthogonalLoop=1;jettySize=auto;html=1;entryX=0;entryY=0.5;entryDx=0;entryDy=0;" edge="1" parent="jvdhxDSraGoJmhO3MUvB-271" source="jvdhxDSraGoJmhO3MUvB-228" target="jvdhxDSraGoJmhO3MUvB-224">
          <mxGeometry relative="1" as="geometry">
            <Array as="points">
              <mxPoint x="70.89999999999992" y="180" />
            </Array>
          </mxGeometry>
        </mxCell>
        <mxCell id="jvdhxDSraGoJmhO3MUvB-228" value="switch(req.requestCode)" style="rounded=1;whiteSpace=wrap;html=1;" vertex="1" parent="jvdhxDSraGoJmhO3MUvB-271">
          <mxGeometry x="24.99999999999983" y="50" width="214.8" height="40" as="geometry" />
        </mxCell>
        <mxCell id="jvdhxDSraGoJmhO3MUvB-229" value="case&amp;nbsp;&lt;br&gt;REQ_LEAVE_LOBBY:" style="rhombus;whiteSpace=wrap;html=1;" vertex="1" parent="jvdhxDSraGoJmhO3MUvB-271">
          <mxGeometry x="91.09999999999974" y="230" width="180" height="80" as="geometry" />
        </mxCell>
        <mxCell id="jvdhxDSraGoJmhO3MUvB-226" style="edgeStyle=orthogonalEdgeStyle;rounded=0;orthogonalLoop=1;jettySize=auto;html=1;entryX=0;entryY=0.5;entryDx=0;entryDy=0;" edge="1" parent="jvdhxDSraGoJmhO3MUvB-271" source="jvdhxDSraGoJmhO3MUvB-228" target="jvdhxDSraGoJmhO3MUvB-229">
          <mxGeometry relative="1" as="geometry">
            <Array as="points">
              <mxPoint x="70.89999999999992" y="270" />
            </Array>
          </mxGeometry>
        </mxCell>
        <mxCell id="jvdhxDSraGoJmhO3MUvB-230" value="case&amp;nbsp;&lt;br&gt;REQ_RECONNECT:" style="rhombus;whiteSpace=wrap;html=1;" vertex="1" parent="jvdhxDSraGoJmhO3MUvB-271">
          <mxGeometry x="91.09999999999974" y="320" width="180" height="80" as="geometry" />
        </mxCell>
        <mxCell id="jvdhxDSraGoJmhO3MUvB-227" style="edgeStyle=orthogonalEdgeStyle;rounded=0;orthogonalLoop=1;jettySize=auto;html=1;" edge="1" parent="jvdhxDSraGoJmhO3MUvB-271" source="jvdhxDSraGoJmhO3MUvB-228" target="jvdhxDSraGoJmhO3MUvB-230">
          <mxGeometry relative="1" as="geometry">
            <Array as="points">
              <mxPoint x="70.89999999999992" y="360" />
            </Array>
          </mxGeometry>
        </mxCell>
        <mxCell id="jvdhxDSraGoJmhO3MUvB-231" value="" style="endArrow=none;dashed=1;html=1;dashPattern=1 3;strokeWidth=2;rounded=0;" edge="1" parent="jvdhxDSraGoJmhO3MUvB-271">
          <mxGeometry width="50" height="50" relative="1" as="geometry">
            <mxPoint x="181.09999999999974" y="440" as="sourcePoint" />
            <mxPoint x="180.7699999999998" y="410" as="targetPoint" />
          </mxGeometry>
        </mxCell>
        <mxCell id="jvdhxDSraGoJmhO3MUvB-232" value="default:" style="rhombus;whiteSpace=wrap;html=1;" vertex="1" parent="jvdhxDSraGoJmhO3MUvB-271">
          <mxGeometry x="84.80000000000001" y="470" width="180" height="80" as="geometry" />
        </mxCell>
        <mxCell id="jvdhxDSraGoJmhO3MUvB-233" style="edgeStyle=orthogonalEdgeStyle;rounded=0;orthogonalLoop=1;jettySize=auto;html=1;entryX=0.023;entryY=0.579;entryDx=0;entryDy=0;entryPerimeter=0;" edge="1" parent="jvdhxDSraGoJmhO3MUvB-271" source="jvdhxDSraGoJmhO3MUvB-228" target="jvdhxDSraGoJmhO3MUvB-232">
          <mxGeometry relative="1" as="geometry">
            <Array as="points">
              <mxPoint x="70.89999999999992" y="516" />
            </Array>
          </mxGeometry>
        </mxCell>
        <mxCell id="jvdhxDSraGoJmhO3MUvB-273" value="thread processIncomes" style="swimlane;whiteSpace=wrap;html=1;fillColor=#f8cecc;strokeColor=#b85450;" vertex="1" parent="jvdhxDSraGoJmhO3MUvB-148">
          <mxGeometry x="1925.0000000000002" y="1110" width="498.82" height="740" as="geometry" />
        </mxCell>
        <mxCell id="jvdhxDSraGoJmhO3MUvB-223" value="processTextIncome(receivedTextDataQueue.front())&lt;br&gt;receivedTextDataQueue.pop()" style="rounded=1;whiteSpace=wrap;html=1;" vertex="1" parent="jvdhxDSraGoJmhO3MUvB-273">
          <mxGeometry x="47.62000000000012" y="240" width="370.04" height="60" as="geometry" />
        </mxCell>
        <mxCell id="jvdhxDSraGoJmhO3MUvB-241" value="processVoiceIncome(requestCode)" style="rounded=1;whiteSpace=wrap;html=1;" vertex="1" parent="jvdhxDSraGoJmhO3MUvB-273">
          <mxGeometry x="129.69000000000005" y="470" width="205.9" height="60" as="geometry" />
        </mxCell>
        <mxCell id="jvdhxDSraGoJmhO3MUvB-243" value="true" style="edgeStyle=orthogonalEdgeStyle;rounded=0;orthogonalLoop=1;jettySize=auto;html=1;" edge="1" parent="jvdhxDSraGoJmhO3MUvB-273" source="jvdhxDSraGoJmhO3MUvB-242" target="jvdhxDSraGoJmhO3MUvB-241">
          <mxGeometry relative="1" as="geometry" />
        </mxCell>
        <mxCell id="jvdhxDSraGoJmhO3MUvB-242" value="if receivedVoiceDataQueue.size()&amp;gt;=1" style="rhombus;whiteSpace=wrap;html=1;" vertex="1" parent="jvdhxDSraGoJmhO3MUvB-273">
          <mxGeometry x="117.32000000000016" y="330" width="225.35" height="90" as="geometry" />
        </mxCell>
        <mxCell id="jvdhxDSraGoJmhO3MUvB-257" style="edgeStyle=orthogonalEdgeStyle;rounded=0;orthogonalLoop=1;jettySize=auto;html=1;" edge="1" parent="jvdhxDSraGoJmhO3MUvB-273" source="jvdhxDSraGoJmhO3MUvB-223" target="jvdhxDSraGoJmhO3MUvB-242">
          <mxGeometry relative="1" as="geometry" />
        </mxCell>
        <mxCell id="jvdhxDSraGoJmhO3MUvB-256" value="true" style="edgeStyle=orthogonalEdgeStyle;rounded=0;orthogonalLoop=1;jettySize=auto;html=1;" edge="1" parent="jvdhxDSraGoJmhO3MUvB-273" source="jvdhxDSraGoJmhO3MUvB-244" target="jvdhxDSraGoJmhO3MUvB-223">
          <mxGeometry relative="1" as="geometry" />
        </mxCell>
        <mxCell id="jvdhxDSraGoJmhO3MUvB-268" value="false" style="edgeStyle=orthogonalEdgeStyle;rounded=0;orthogonalLoop=1;jettySize=auto;html=1;" edge="1" parent="jvdhxDSraGoJmhO3MUvB-273" source="jvdhxDSraGoJmhO3MUvB-244" target="jvdhxDSraGoJmhO3MUvB-242">
          <mxGeometry relative="1" as="geometry">
            <Array as="points">
              <mxPoint x="17.6400000000001" y="165" />
              <mxPoint x="17.6400000000001" y="375" />
            </Array>
          </mxGeometry>
        </mxCell>
        <mxCell id="jvdhxDSraGoJmhO3MUvB-244" value="if receivedTextDataQueue.size()&amp;gt;=1" style="rhombus;whiteSpace=wrap;html=1;" vertex="1" parent="jvdhxDSraGoJmhO3MUvB-273">
          <mxGeometry x="117.32000000000016" y="130" width="245.35" height="70" as="geometry" />
        </mxCell>
        <mxCell id="jvdhxDSraGoJmhO3MUvB-261" style="edgeStyle=orthogonalEdgeStyle;rounded=0;orthogonalLoop=1;jettySize=auto;html=1;" edge="1" parent="jvdhxDSraGoJmhO3MUvB-273" source="jvdhxDSraGoJmhO3MUvB-260" target="jvdhxDSraGoJmhO3MUvB-244">
          <mxGeometry relative="1" as="geometry" />
        </mxCell>
        <mxCell id="jvdhxDSraGoJmhO3MUvB-260" value="while(true)" style="rhombus;whiteSpace=wrap;html=1;" vertex="1" parent="jvdhxDSraGoJmhO3MUvB-273">
          <mxGeometry x="148.1500000000001" y="50" width="184.8" height="55" as="geometry" />
        </mxCell>
        <mxCell id="jvdhxDSraGoJmhO3MUvB-263" value="" style="ellipse;whiteSpace=wrap;html=1;" vertex="1" parent="jvdhxDSraGoJmhO3MUvB-273">
          <mxGeometry x="172.6400000000001" y="580" width="120" height="80" as="geometry" />
        </mxCell>
        <mxCell id="jvdhxDSraGoJmhO3MUvB-264" style="edgeStyle=orthogonalEdgeStyle;rounded=0;orthogonalLoop=1;jettySize=auto;html=1;" edge="1" parent="jvdhxDSraGoJmhO3MUvB-273" source="jvdhxDSraGoJmhO3MUvB-241" target="jvdhxDSraGoJmhO3MUvB-263">
          <mxGeometry relative="1" as="geometry" />
        </mxCell>
        <mxCell id="jvdhxDSraGoJmhO3MUvB-265" value="false" style="edgeStyle=orthogonalEdgeStyle;rounded=0;orthogonalLoop=1;jettySize=auto;html=1;" edge="1" parent="jvdhxDSraGoJmhO3MUvB-273" source="jvdhxDSraGoJmhO3MUvB-242" target="jvdhxDSraGoJmhO3MUvB-263">
          <mxGeometry relative="1" as="geometry">
            <Array as="points">
              <mxPoint x="377.6400000000001" y="375" />
              <mxPoint x="377.6400000000001" y="620" />
            </Array>
          </mxGeometry>
        </mxCell>
        <mxCell id="jvdhxDSraGoJmhO3MUvB-270" style="edgeStyle=orthogonalEdgeStyle;rounded=0;orthogonalLoop=1;jettySize=auto;html=1;" edge="1" parent="jvdhxDSraGoJmhO3MUvB-273" source="jvdhxDSraGoJmhO3MUvB-263" target="jvdhxDSraGoJmhO3MUvB-260">
          <mxGeometry relative="1" as="geometry">
            <Array as="points">
              <mxPoint x="232.6400000000001" y="690" />
              <mxPoint x="477.6400000000001" y="690" />
              <mxPoint x="477.6400000000001" y="78" />
            </Array>
          </mxGeometry>
        </mxCell>
        <mxCell id="jvdhxDSraGoJmhO3MUvB-407" style="edgeStyle=orthogonalEdgeStyle;rounded=0;orthogonalLoop=1;jettySize=auto;html=1;entryX=1;entryY=0.75;entryDx=0;entryDy=0;fillColor=#d80073;strokeColor=#A50040;" edge="1" parent="jvdhxDSraGoJmhO3MUvB-148" source="jvdhxDSraGoJmhO3MUvB-275" target="jvdhxDSraGoJmhO3MUvB-351">
          <mxGeometry relative="1" as="geometry" />
        </mxCell>
        <mxCell id="jvdhxDSraGoJmhO3MUvB-413" style="edgeStyle=orthogonalEdgeStyle;rounded=0;orthogonalLoop=1;jettySize=auto;html=1;entryX=1;entryY=0.75;entryDx=0;entryDy=0;fillColor=#d80073;strokeColor=#A50040;" edge="1" parent="jvdhxDSraGoJmhO3MUvB-148" source="jvdhxDSraGoJmhO3MUvB-275" target="jvdhxDSraGoJmhO3MUvB-376">
          <mxGeometry relative="1" as="geometry">
            <Array as="points">
              <mxPoint x="1330" y="840" />
              <mxPoint x="1330" y="1230" />
              <mxPoint x="1050" y="1230" />
            </Array>
          </mxGeometry>
        </mxCell>
        <mxCell id="jvdhxDSraGoJmhO3MUvB-275" value="void removeRequestCloser(string&amp;amp; data)&lt;br&gt;&lt;br&gt;//config.h&lt;br&gt;#define CLOSER_LENGTH 1&lt;br&gt;data = data.substr(0, data.length() - CLOSEL_ENGTH" style="points=[[0,0],[0.25,0],[0.5,0],[0.75,0],[1,0],[1,0.25],[1,0.5],[1,0.75],[1,1],[0.75,1],[0.5,1],[0.25,1],[0,1],[0,0.75],[0,0.5],[0,0.25]];outlineConnect=0;gradientColor=none;html=1;whiteSpace=wrap;fontSize=12;fontStyle=0;container=1;pointerEvents=0;collapsible=0;recursiveResize=0;shape=mxgraph.aws4.group;grIcon=mxgraph.aws4.group_aws_step_functions_workflow;strokeColor=#CD2264;fillColor=none;verticalAlign=top;align=left;spacingLeft=30;fontColor=#CD2264;dashed=0;" vertex="1" parent="jvdhxDSraGoJmhO3MUvB-148">
          <mxGeometry x="1450" y="790" width="360" height="100" as="geometry" />
        </mxCell>
        <mxCell id="jvdhxDSraGoJmhO3MUvB-392" style="edgeStyle=orthogonalEdgeStyle;rounded=0;orthogonalLoop=1;jettySize=auto;html=1;fillColor=#ffe6cc;strokeColor=#d79b00;" edge="1" parent="jvdhxDSraGoJmhO3MUvB-148" source="jvdhxDSraGoJmhO3MUvB-277" target="jvdhxDSraGoJmhO3MUvB-376">
          <mxGeometry relative="1" as="geometry">
            <Array as="points">
              <mxPoint x="1360" y="1075" />
              <mxPoint x="1360" y="1240" />
            </Array>
          </mxGeometry>
        </mxCell>
        <mxCell id="jvdhxDSraGoJmhO3MUvB-393" style="edgeStyle=orthogonalEdgeStyle;rounded=0;orthogonalLoop=1;jettySize=auto;html=1;fillColor=#ffe6cc;strokeColor=#d79b00;" edge="1" parent="jvdhxDSraGoJmhO3MUvB-148" source="jvdhxDSraGoJmhO3MUvB-277" target="jvdhxDSraGoJmhO3MUvB-351">
          <mxGeometry relative="1" as="geometry">
            <Array as="points">
              <mxPoint x="1360" y="1075" />
              <mxPoint x="1360" y="805" />
            </Array>
          </mxGeometry>
        </mxCell>
        <mxCell id="jvdhxDSraGoJmhO3MUvB-277" value="void DataSecurity::decrypt(string&amp;amp; data)&lt;br&gt;&lt;br&gt;" style="points=[[0,0],[0.25,0],[0.5,0],[0.75,0],[1,0],[1,0.25],[1,0.5],[1,0.75],[1,1],[0.75,1],[0.5,1],[0.25,1],[0,1],[0,0.75],[0,0.5],[0,0.25]];outlineConnect=0;html=1;whiteSpace=wrap;fontSize=12;fontStyle=0;container=1;pointerEvents=0;collapsible=0;recursiveResize=0;shape=mxgraph.aws4.group;grIcon=mxgraph.aws4.group_aws_step_functions_workflow;strokeColor=#d79b00;fillColor=#ffe6cc;verticalAlign=top;align=left;spacingLeft=30;dashed=0;" vertex="1" parent="jvdhxDSraGoJmhO3MUvB-148">
          <mxGeometry x="1450" y="1020" width="340" height="110" as="geometry" />
        </mxCell>
        <mxCell id="jvdhxDSraGoJmhO3MUvB-399" style="edgeStyle=orthogonalEdgeStyle;rounded=0;orthogonalLoop=1;jettySize=auto;html=1;fillColor=#d5e8d4;strokeColor=#82b366;" edge="1" parent="jvdhxDSraGoJmhO3MUvB-148" source="jvdhxDSraGoJmhO3MUvB-299" target="jvdhxDSraGoJmhO3MUvB-279">
          <mxGeometry relative="1" as="geometry">
            <Array as="points">
              <mxPoint x="400" y="1770" />
              <mxPoint x="900" y="1770" />
            </Array>
          </mxGeometry>
        </mxCell>
        <mxCell id="jvdhxDSraGoJmhO3MUvB-400" style="edgeStyle=orthogonalEdgeStyle;rounded=0;orthogonalLoop=1;jettySize=auto;html=1;fillColor=#d5e8d4;strokeColor=#82b366;" edge="1" parent="jvdhxDSraGoJmhO3MUvB-148" source="jvdhxDSraGoJmhO3MUvB-299" target="jvdhxDSraGoJmhO3MUvB-292">
          <mxGeometry relative="1" as="geometry">
            <Array as="points">
              <mxPoint x="330" y="1910" />
            </Array>
          </mxGeometry>
        </mxCell>
        <mxCell id="jvdhxDSraGoJmhO3MUvB-401" value="write" style="edgeStyle=orthogonalEdgeStyle;rounded=0;orthogonalLoop=1;jettySize=auto;html=1;endArrow=none;endFill=0;fillColor=#e1d5e7;strokeColor=#9673a6;" edge="1" parent="jvdhxDSraGoJmhO3MUvB-148" source="jvdhxDSraGoJmhO3MUvB-299" target="jvdhxDSraGoJmhO3MUvB-155">
          <mxGeometry relative="1" as="geometry">
            <Array as="points">
              <mxPoint x="190" y="1160" />
              <mxPoint x="190" y="645" />
            </Array>
          </mxGeometry>
        </mxCell>
        <mxCell id="jvdhxDSraGoJmhO3MUvB-402" value="write" style="edgeStyle=orthogonalEdgeStyle;rounded=0;orthogonalLoop=1;jettySize=auto;html=1;endArrow=none;endFill=0;fillColor=#e1d5e7;strokeColor=#9673a6;" edge="1" parent="jvdhxDSraGoJmhO3MUvB-148" source="jvdhxDSraGoJmhO3MUvB-299" target="jvdhxDSraGoJmhO3MUvB-154">
          <mxGeometry relative="1" as="geometry">
            <Array as="points">
              <mxPoint x="200" y="490" />
            </Array>
          </mxGeometry>
        </mxCell>
        <mxCell id="jvdhxDSraGoJmhO3MUvB-299" value="void UdpSocket::send(const SocketSendData&amp;amp; data)" style="points=[[0,0],[0.25,0],[0.5,0],[0.75,0],[1,0],[1,0.25],[1,0.5],[1,0.75],[1,1],[0.75,1],[0.5,1],[0.25,1],[0,1],[0,0.75],[0,0.5],[0,0.25]];outlineConnect=0;html=1;whiteSpace=wrap;fontSize=12;fontStyle=0;container=1;pointerEvents=0;collapsible=0;recursiveResize=0;shape=mxgraph.aws4.group;grIcon=mxgraph.aws4.group_aws_step_functions_workflow;strokeColor=#82b366;fillColor=#d5e8d4;verticalAlign=top;align=left;spacingLeft=30;dashed=0;" vertex="1" parent="jvdhxDSraGoJmhO3MUvB-148">
          <mxGeometry x="210" y="1100" width="360" height="100" as="geometry" />
        </mxCell>
        <mxCell id="jvdhxDSraGoJmhO3MUvB-302" value="dataType.h&lt;br&gt;&lt;br&gt;struct AnAddress { ip , port }&amp;nbsp; &amp;nbsp;-&amp;gt; func --&amp;gt; fromEndpoint(Endpoint x)&lt;br&gt;enum SendType { OnlySender, BroadCastToAll, BroadCastToAllExceptSender, BroadCastToAllExceptList }&lt;br&gt;struct SocketReceivedData {int code, string data, AnAddress sender)&amp;nbsp;&lt;br&gt;struct SocketSendData {SendType, int code, string data, vector&amp;lt;AnAddress&amp;gt; exceptList}" style="points=[[0,0],[0.25,0],[0.5,0],[0.75,0],[1,0],[1,0.25],[1,0.5],[1,0.75],[1,1],[0.75,1],[0.5,1],[0.25,1],[0,1],[0,0.75],[0,0.5],[0,0.25]];outlineConnect=0;gradientColor=none;html=1;whiteSpace=wrap;fontSize=12;fontStyle=0;container=1;pointerEvents=0;collapsible=0;recursiveResize=0;shape=mxgraph.aws4.group;grIcon=mxgraph.aws4.group_aws_step_functions_workflow;strokeColor=#CD2264;fillColor=none;verticalAlign=top;align=left;spacingLeft=30;fontColor=#CD2264;dashed=0;" vertex="1" parent="jvdhxDSraGoJmhO3MUvB-148">
          <mxGeometry x="2000" y="170" width="620" height="100" as="geometry" />
        </mxCell>
        <mxCell id="jvdhxDSraGoJmhO3MUvB-390" value="read" style="edgeStyle=orthogonalEdgeStyle;rounded=0;orthogonalLoop=1;jettySize=auto;html=1;endArrow=none;endFill=0;fillColor=#f8cecc;strokeColor=#b85450;" edge="1" parent="jvdhxDSraGoJmhO3MUvB-148" source="jvdhxDSraGoJmhO3MUvB-303" target="jvdhxDSraGoJmhO3MUvB-154">
          <mxGeometry relative="1" as="geometry">
            <Array as="points">
              <mxPoint x="310" y="520" />
              <mxPoint x="310" y="470" />
            </Array>
          </mxGeometry>
        </mxCell>
        <mxCell id="jvdhxDSraGoJmhO3MUvB-391" value="read" style="edgeStyle=orthogonalEdgeStyle;rounded=0;orthogonalLoop=1;jettySize=auto;html=1;endArrow=none;endFill=0;fillColor=#f8cecc;strokeColor=#b85450;" edge="1" parent="jvdhxDSraGoJmhO3MUvB-148" source="jvdhxDSraGoJmhO3MUvB-303" target="jvdhxDSraGoJmhO3MUvB-155">
          <mxGeometry relative="1" as="geometry">
            <Array as="points">
              <mxPoint x="310" y="520" />
              <mxPoint x="310" y="610" />
              <mxPoint x="115" y="610" />
            </Array>
          </mxGeometry>
        </mxCell>
        <mxCell id="jvdhxDSraGoJmhO3MUvB-312" value="thread receive" style="swimlane;whiteSpace=wrap;html=1;fillColor=#dae8fc;strokeColor=#6c8ebf;" vertex="1" parent="jvdhxDSraGoJmhO3MUvB-148">
          <mxGeometry x="750" y="260" width="490" height="1030" as="geometry" />
        </mxCell>
        <mxCell id="jvdhxDSraGoJmhO3MUvB-314" value="while(true)" style="rhombus;whiteSpace=wrap;html=1;" vertex="1" parent="jvdhxDSraGoJmhO3MUvB-312">
          <mxGeometry x="50" y="155" width="240" height="80" as="geometry" />
        </mxCell>
        <mxCell id="jvdhxDSraGoJmhO3MUvB-320" value="start" style="ellipse;whiteSpace=wrap;html=1;" vertex="1" parent="jvdhxDSraGoJmhO3MUvB-312">
          <mxGeometry x="330" y="40" width="120" height="80" as="geometry" />
        </mxCell>
        <mxCell id="jvdhxDSraGoJmhO3MUvB-321" style="edgeStyle=orthogonalEdgeStyle;rounded=0;orthogonalLoop=1;jettySize=auto;html=1;" edge="1" parent="jvdhxDSraGoJmhO3MUvB-312" source="jvdhxDSraGoJmhO3MUvB-330" target="jvdhxDSraGoJmhO3MUvB-314">
          <mxGeometry relative="1" as="geometry">
            <mxPoint x="170" y="115" as="sourcePoint" />
          </mxGeometry>
        </mxCell>
        <mxCell id="jvdhxDSraGoJmhO3MUvB-356" style="edgeStyle=orthogonalEdgeStyle;rounded=0;orthogonalLoop=1;jettySize=auto;html=1;entryX=1;entryY=0.5;entryDx=0;entryDy=0;" edge="1" parent="jvdhxDSraGoJmhO3MUvB-312" source="jvdhxDSraGoJmhO3MUvB-328" target="jvdhxDSraGoJmhO3MUvB-314">
          <mxGeometry relative="1" as="geometry">
            <mxPoint x="430.0526315789475" y="765.379265460132" as="sourcePoint" />
            <Array as="points">
              <mxPoint x="430" y="195" />
            </Array>
          </mxGeometry>
        </mxCell>
        <mxCell id="jvdhxDSraGoJmhO3MUvB-328" value="end" style="ellipse;whiteSpace=wrap;html=1;" vertex="1" parent="jvdhxDSraGoJmhO3MUvB-312">
          <mxGeometry x="340" y="760" width="120" height="80" as="geometry" />
        </mxCell>
        <mxCell id="jvdhxDSraGoJmhO3MUvB-329" value="" style="edgeStyle=orthogonalEdgeStyle;rounded=0;orthogonalLoop=1;jettySize=auto;html=1;" edge="1" parent="jvdhxDSraGoJmhO3MUvB-312" source="jvdhxDSraGoJmhO3MUvB-320" target="jvdhxDSraGoJmhO3MUvB-330">
          <mxGeometry relative="1" as="geometry">
            <mxPoint x="1500" y="720" as="sourcePoint" />
            <mxPoint x="1500" y="865" as="targetPoint" />
          </mxGeometry>
        </mxCell>
        <mxCell id="jvdhxDSraGoJmhO3MUvB-330" value="SocketReceivedData temp&lt;br&gt;DataSecurity dataSecuirty" style="rounded=1;whiteSpace=wrap;html=1;" vertex="1" parent="jvdhxDSraGoJmhO3MUvB-312">
          <mxGeometry x="95" y="60" width="150" height="60" as="geometry" />
        </mxCell>
        <mxCell id="jvdhxDSraGoJmhO3MUvB-333" value="" style="edgeStyle=orthogonalEdgeStyle;rounded=0;orthogonalLoop=1;jettySize=auto;html=1;" edge="1" parent="jvdhxDSraGoJmhO3MUvB-312" source="jvdhxDSraGoJmhO3MUvB-349" target="jvdhxDSraGoJmhO3MUvB-344">
          <mxGeometry relative="1" as="geometry">
            <mxPoint x="2060" y="1855" as="sourcePoint" />
            <mxPoint x="200.02857142857192" y="270" as="targetPoint" />
          </mxGeometry>
        </mxCell>
        <mxCell id="jvdhxDSraGoJmhO3MUvB-353" value="true" style="edgeStyle=orthogonalEdgeStyle;rounded=0;orthogonalLoop=1;jettySize=auto;html=1;" edge="1" parent="jvdhxDSraGoJmhO3MUvB-312" source="jvdhxDSraGoJmhO3MUvB-344" target="jvdhxDSraGoJmhO3MUvB-351">
          <mxGeometry relative="1" as="geometry" />
        </mxCell>
        <mxCell id="jvdhxDSraGoJmhO3MUvB-355" value="false" style="edgeStyle=orthogonalEdgeStyle;rounded=0;orthogonalLoop=1;jettySize=auto;html=1;" edge="1" parent="jvdhxDSraGoJmhO3MUvB-312" source="jvdhxDSraGoJmhO3MUvB-344" target="jvdhxDSraGoJmhO3MUvB-328">
          <mxGeometry relative="1" as="geometry">
            <mxPoint x="400" y="760" as="targetPoint" />
          </mxGeometry>
        </mxCell>
        <mxCell id="jvdhxDSraGoJmhO3MUvB-344" value="if(!temp.data.empty())" style="rhombus;whiteSpace=wrap;html=1;" vertex="1" parent="jvdhxDSraGoJmhO3MUvB-312">
          <mxGeometry x="65" y="370" width="240" height="80" as="geometry" />
        </mxCell>
        <mxCell id="jvdhxDSraGoJmhO3MUvB-350" value="" style="edgeStyle=orthogonalEdgeStyle;rounded=0;orthogonalLoop=1;jettySize=auto;html=1;" edge="1" parent="jvdhxDSraGoJmhO3MUvB-312" source="jvdhxDSraGoJmhO3MUvB-314" target="jvdhxDSraGoJmhO3MUvB-349">
          <mxGeometry relative="1" as="geometry">
            <mxPoint x="2075" y="1805" as="sourcePoint" />
            <mxPoint x="2090" y="1940" as="targetPoint" />
          </mxGeometry>
        </mxCell>
        <mxCell id="jvdhxDSraGoJmhO3MUvB-349" value="&lt;span style=&quot;color: rgb(0, 0, 0); font-family: Helvetica; font-size: 12px; font-style: normal; font-variant-ligatures: normal; font-variant-caps: normal; font-weight: 400; letter-spacing: normal; orphans: 2; text-align: center; text-indent: 0px; text-transform: none; widows: 2; word-spacing: 0px; -webkit-text-stroke-width: 0px; background-color: rgb(251, 251, 251); text-decoration-thickness: initial; text-decoration-style: initial; text-decoration-color: initial; float: none; display: inline !important;&quot;&gt;temp.data = socketText.receive(temp.sender)&lt;/span&gt;" style="rounded=1;whiteSpace=wrap;html=1;" vertex="1" parent="jvdhxDSraGoJmhO3MUvB-312">
          <mxGeometry x="55" y="280" width="260" height="60" as="geometry" />
        </mxCell>
        <mxCell id="jvdhxDSraGoJmhO3MUvB-367" style="edgeStyle=orthogonalEdgeStyle;rounded=0;orthogonalLoop=1;jettySize=auto;html=1;" edge="1" parent="jvdhxDSraGoJmhO3MUvB-312" source="jvdhxDSraGoJmhO3MUvB-351" target="jvdhxDSraGoJmhO3MUvB-365">
          <mxGeometry relative="1" as="geometry" />
        </mxCell>
        <mxCell id="jvdhxDSraGoJmhO3MUvB-351" value="seprateCode(temp.code, temp.data)&lt;br&gt;removeRequestCloser(temp.data)&lt;br style=&quot;border-color: var(--border-color);&quot;&gt;dataSecurity.decrypt(temp.data)&lt;br&gt;receivedTextDataQueue.push(temp)" style="rounded=1;whiteSpace=wrap;html=1;" vertex="1" parent="jvdhxDSraGoJmhO3MUvB-312">
          <mxGeometry x="40" y="510" width="260" height="70" as="geometry" />
        </mxCell>
        <mxCell id="jvdhxDSraGoJmhO3MUvB-370" value="true" style="edgeStyle=orthogonalEdgeStyle;rounded=0;orthogonalLoop=1;jettySize=auto;html=1;" edge="1" parent="jvdhxDSraGoJmhO3MUvB-312" source="jvdhxDSraGoJmhO3MUvB-365" target="jvdhxDSraGoJmhO3MUvB-369">
          <mxGeometry relative="1" as="geometry" />
        </mxCell>
        <mxCell id="jvdhxDSraGoJmhO3MUvB-374" value="false" style="edgeStyle=orthogonalEdgeStyle;rounded=0;orthogonalLoop=1;jettySize=auto;html=1;" edge="1" parent="jvdhxDSraGoJmhO3MUvB-312" source="jvdhxDSraGoJmhO3MUvB-365" target="jvdhxDSraGoJmhO3MUvB-328">
          <mxGeometry relative="1" as="geometry">
            <mxPoint x="370.0526315789475" y="765.3387496240557" as="targetPoint" />
            <Array as="points">
              <mxPoint x="370" y="650" />
            </Array>
          </mxGeometry>
        </mxCell>
        <mxCell id="jvdhxDSraGoJmhO3MUvB-365" value="if voiceChatStatus" style="rhombus;whiteSpace=wrap;html=1;" vertex="1" parent="jvdhxDSraGoJmhO3MUvB-312">
          <mxGeometry x="75" y="610" width="190" height="80" as="geometry" />
        </mxCell>
        <mxCell id="jvdhxDSraGoJmhO3MUvB-372" style="edgeStyle=orthogonalEdgeStyle;rounded=0;orthogonalLoop=1;jettySize=auto;html=1;" edge="1" parent="jvdhxDSraGoJmhO3MUvB-312" source="jvdhxDSraGoJmhO3MUvB-369" target="jvdhxDSraGoJmhO3MUvB-371">
          <mxGeometry relative="1" as="geometry" />
        </mxCell>
        <mxCell id="jvdhxDSraGoJmhO3MUvB-369" value="&lt;span style=&quot;color: rgb(0, 0, 0); font-family: Helvetica; font-size: 12px; font-style: normal; font-variant-ligatures: normal; font-variant-caps: normal; font-weight: 400; letter-spacing: normal; orphans: 2; text-align: center; text-indent: 0px; text-transform: none; widows: 2; word-spacing: 0px; -webkit-text-stroke-width: 0px; background-color: rgb(251, 251, 251); text-decoration-thickness: initial; text-decoration-style: initial; text-decoration-color: initial; float: none; display: inline !important;&quot;&gt;temp.data = socketVoice.receive(temp.sender)&lt;/span&gt;" style="rounded=1;whiteSpace=wrap;html=1;" vertex="1" parent="jvdhxDSraGoJmhO3MUvB-312">
          <mxGeometry x="40" y="730" width="260" height="60" as="geometry" />
        </mxCell>
        <mxCell id="jvdhxDSraGoJmhO3MUvB-375" value="false" style="edgeStyle=orthogonalEdgeStyle;rounded=0;orthogonalLoop=1;jettySize=auto;html=1;" edge="1" parent="jvdhxDSraGoJmhO3MUvB-312" source="jvdhxDSraGoJmhO3MUvB-371" target="jvdhxDSraGoJmhO3MUvB-328">
          <mxGeometry relative="1" as="geometry">
            <mxPoint x="340.00005193908055" y="800.0526315789475" as="targetPoint" />
          </mxGeometry>
        </mxCell>
        <mxCell id="jvdhxDSraGoJmhO3MUvB-378" value="true" style="edgeStyle=orthogonalEdgeStyle;rounded=0;orthogonalLoop=1;jettySize=auto;html=1;" edge="1" parent="jvdhxDSraGoJmhO3MUvB-312" source="jvdhxDSraGoJmhO3MUvB-371" target="jvdhxDSraGoJmhO3MUvB-376">
          <mxGeometry relative="1" as="geometry" />
        </mxCell>
        <mxCell id="jvdhxDSraGoJmhO3MUvB-371" value="if(!temp.data.empty())" style="rhombus;whiteSpace=wrap;html=1;" vertex="1" parent="jvdhxDSraGoJmhO3MUvB-312">
          <mxGeometry x="50" y="820" width="240" height="80" as="geometry" />
        </mxCell>
        <mxCell id="jvdhxDSraGoJmhO3MUvB-377" style="edgeStyle=orthogonalEdgeStyle;rounded=0;orthogonalLoop=1;jettySize=auto;html=1;" edge="1" parent="jvdhxDSraGoJmhO3MUvB-312" source="jvdhxDSraGoJmhO3MUvB-376" target="jvdhxDSraGoJmhO3MUvB-328">
          <mxGeometry relative="1" as="geometry">
            <mxPoint x="400" y="840" as="targetPoint" />
          </mxGeometry>
        </mxCell>
        <mxCell id="jvdhxDSraGoJmhO3MUvB-376" value="seprateCode(temp.code, temp.data)&lt;br&gt;rmoveRequestCloser(temp.data)&lt;br&gt;dataSecurity.decrypt(temp.data)&lt;br&gt;receivedVoiceDataQueue.push(temp)" style="rounded=1;whiteSpace=wrap;html=1;" vertex="1" parent="jvdhxDSraGoJmhO3MUvB-312">
          <mxGeometry x="40" y="930" width="260" height="60" as="geometry" />
        </mxCell>
        <mxCell id="jvdhxDSraGoJmhO3MUvB-395" style="edgeStyle=orthogonalEdgeStyle;rounded=0;orthogonalLoop=1;jettySize=auto;html=1;fillColor=#d5e8d4;strokeColor=#82b366;" edge="1" parent="jvdhxDSraGoJmhO3MUvB-148" source="jvdhxDSraGoJmhO3MUvB-303" target="jvdhxDSraGoJmhO3MUvB-349">
          <mxGeometry relative="1" as="geometry">
            <Array as="points">
              <mxPoint x="730" y="520" />
              <mxPoint x="730" y="560" />
            </Array>
          </mxGeometry>
        </mxCell>
        <mxCell id="jvdhxDSraGoJmhO3MUvB-396" style="edgeStyle=orthogonalEdgeStyle;rounded=0;orthogonalLoop=1;jettySize=auto;html=1;fillColor=#d5e8d4;strokeColor=#82b366;" edge="1" parent="jvdhxDSraGoJmhO3MUvB-148" source="jvdhxDSraGoJmhO3MUvB-303" target="jvdhxDSraGoJmhO3MUvB-369">
          <mxGeometry relative="1" as="geometry">
            <Array as="points">
              <mxPoint x="730" y="520" />
              <mxPoint x="730" y="1020" />
            </Array>
          </mxGeometry>
        </mxCell>
        <mxCell id="jvdhxDSraGoJmhO3MUvB-303" value="string UdpSocket::receive(AnAddress&amp;amp; sender)&lt;br&gt;&lt;br&gt;&lt;br&gt;len = socket.receive(receive_data,receive_length)&lt;br&gt;if(len&amp;gt;=1)&lt;br&gt;{&lt;br&gt;&lt;span style=&quot;&quot;&gt;&lt;span style=&quot;white-space: pre;&quot;&gt;&amp;nbsp;&amp;nbsp;&amp;nbsp;&amp;nbsp;&lt;/span&gt;&lt;/span&gt;sender.fromEndpoint(senderEndpoint)&lt;br&gt;&lt;span style=&quot;&quot;&gt;&lt;span style=&quot;white-space: pre;&quot;&gt;&amp;nbsp;&amp;nbsp;&amp;nbsp;&amp;nbsp;&lt;/span&gt;&lt;/span&gt;return string(received_data, receive_length)&lt;br&gt;}&lt;br&gt;return &quot;&quot;;" style="points=[[0,0],[0.25,0],[0.5,0],[0.75,0],[1,0],[1,0.25],[1,0.5],[1,0.75],[1,1],[0.75,1],[0.5,1],[0.25,1],[0,1],[0,0.75],[0,0.5],[0,0.25]];outlineConnect=0;html=1;whiteSpace=wrap;fontSize=12;fontStyle=0;container=1;pointerEvents=0;collapsible=0;recursiveResize=0;shape=mxgraph.aws4.group;grIcon=mxgraph.aws4.group_aws_step_functions_workflow;strokeColor=#82b366;fillColor=#d5e8d4;verticalAlign=top;align=left;spacingLeft=30;dashed=0;" vertex="1" parent="jvdhxDSraGoJmhO3MUvB-148">
          <mxGeometry x="370" y="440" width="340" height="160" as="geometry" />
        </mxCell>
        <mxCell id="jvdhxDSraGoJmhO3MUvB-416" style="edgeStyle=orthogonalEdgeStyle;rounded=0;orthogonalLoop=1;jettySize=auto;html=1;fillColor=#ffe6cc;strokeColor=#d79b00;" edge="1" parent="jvdhxDSraGoJmhO3MUvB-148" source="jvdhxDSraGoJmhO3MUvB-415" target="jvdhxDSraGoJmhO3MUvB-279">
          <mxGeometry relative="1" as="geometry" />
        </mxCell>
        <mxCell id="jvdhxDSraGoJmhO3MUvB-417" style="edgeStyle=orthogonalEdgeStyle;rounded=0;orthogonalLoop=1;jettySize=auto;html=1;fillColor=#ffe6cc;strokeColor=#d79b00;" edge="1" parent="jvdhxDSraGoJmhO3MUvB-148" source="jvdhxDSraGoJmhO3MUvB-415" target="jvdhxDSraGoJmhO3MUvB-292">
          <mxGeometry relative="1" as="geometry">
            <Array as="points">
              <mxPoint x="1260" y="1775" />
              <mxPoint x="1260" y="1882" />
            </Array>
          </mxGeometry>
        </mxCell>
        <mxCell id="jvdhxDSraGoJmhO3MUvB-415" value="void DataSecurity::encrypt(string&amp;amp; data)&lt;br&gt;" style="points=[[0,0],[0.25,0],[0.5,0],[0.75,0],[1,0],[1,0.25],[1,0.5],[1,0.75],[1,1],[0.75,1],[0.5,1],[0.25,1],[0,1],[0,0.75],[0,0.5],[0,0.25]];outlineConnect=0;html=1;whiteSpace=wrap;fontSize=12;fontStyle=0;container=1;pointerEvents=0;collapsible=0;recursiveResize=0;shape=mxgraph.aws4.group;grIcon=mxgraph.aws4.group_aws_step_functions_workflow;strokeColor=#d79b00;fillColor=#ffe6cc;verticalAlign=top;align=left;spacingLeft=30;dashed=0;" vertex="1" parent="jvdhxDSraGoJmhO3MUvB-148">
          <mxGeometry x="1330" y="1720" width="340" height="110" as="geometry" />
        </mxCell>
        <mxCell id="jvdhxDSraGoJmhO3MUvB-157" value="client 1" style="image;points=[];aspect=fixed;html=1;align=center;shadow=0;dashed=0;image=img/lib/allied_telesis/computer_and_terminals/Personal_Computer_with_Server.svg;" vertex="1" parent="1">
          <mxGeometry x="350" y="550" width="62.400000000000006" height="62.400000000000006" as="geometry" />
        </mxCell>
        <mxCell id="jvdhxDSraGoJmhO3MUvB-171" value="requestCode + voice + closer" style="edgeStyle=orthogonalEdgeStyle;rounded=0;orthogonalLoop=1;jettySize=auto;html=1;" edge="1" parent="1" source="jvdhxDSraGoJmhO3MUvB-157" target="jvdhxDSraGoJmhO3MUvB-155">
          <mxGeometry relative="1" as="geometry">
            <mxPoint x="804.7999999999996" y="581.1428571428573" as="sourcePoint" />
            <Array as="points">
              <mxPoint x="690" y="600" />
              <mxPoint x="690" y="680" />
            </Array>
          </mxGeometry>
        </mxCell>
        <mxCell id="jvdhxDSraGoJmhO3MUvB-170" value="requestCode + text/data + closer" style="edgeStyle=orthogonalEdgeStyle;rounded=0;orthogonalLoop=1;jettySize=auto;html=1;" edge="1" parent="1" source="jvdhxDSraGoJmhO3MUvB-157" target="jvdhxDSraGoJmhO3MUvB-154">
          <mxGeometry x="-0.0001" relative="1" as="geometry">
            <mxPoint x="804.7999999999996" y="581.1428571428573" as="sourcePoint" />
            <Array as="points">
              <mxPoint x="640" y="570" />
              <mxPoint x="640" y="505" />
            </Array>
            <mxPoint as="offset" />
          </mxGeometry>
        </mxCell>
      </root>
    </mxGraphModel>
  </diagram>
</mxfile>
